<svg width="600" height="601" viewBox="0 0 600 601" fill="none" xmlns="http://www.w3.org/2000/svg">
<path d="M104.06 300.11C103.529 263.392 112.284 227.134 129.512 194.704C145.613 164.251 169.847 138.863 199.519 121.364C230.137 104.157 264.669 95.1189 299.792 95.1189C334.915 95.1189 369.446 104.157 400.065 121.364C429.737 138.863 453.971 164.251 470.072 194.704C487.3 227.134 496.055 263.392 495.524 300.11C495.919 332.284 489.291 364.156 476.104 393.505L570.398 435.837C590.326 393.36 600.366 346.919 599.765 300.004C600.611 246.088 587.174 192.908 560.82 145.864C535.5 100.981 498.32 63.9295 453.35 38.7646C406.479 12.625 353.56 -0.732658 299.898 0.0309996C246.236 -0.732658 193.316 12.625 146.445 38.7646C101.4 64.0019 64.2212 101.217 39.0282 146.287C12.728 193.202 -0.724404 246.226 0.0300764 300.004C-0.52167 346.903 9.59286 393.314 29.6094 435.731L123.692 393.399C110.446 364.099 103.747 332.264 104.06 300.11Z" fill="#1D1D1B"/>
<path d="M146.836 561.35C193.989 586.771 246.719 600.08 300.288 600.08C353.858 600.08 406.588 586.771 453.741 561.35C498.709 536.206 535.89 499.172 561.211 454.303C564.597 448.271 567.825 442.133 570.788 435.942L476.494 393.61C474.59 397.685 472.632 401.706 470.462 405.622C454.41 435.971 430.248 461.268 400.668 478.697C370.049 495.904 335.517 504.943 300.394 504.943C265.272 504.943 230.74 495.904 200.121 478.697C170.427 461.227 146.185 435.832 130.115 405.357C127.945 401.442 125.987 397.42 124.082 393.346L30 435.677C32.9103 441.763 36.0323 447.795 39.4188 453.721C64.5895 498.835 101.771 536.09 146.836 561.35Z" fill="#E6007E"/>
</svg>
