<svg width="671" height="1287" viewBox="0 0 671 1287" fill="none" xmlns="http://www.w3.org/2000/svg">
<g opacity="0.1">
<path d="M499.42 842.152C476.655 829.638 450.96 823.246 424.907 823.613C398.86 823.245 373.173 829.638 350.416 842.152C328.58 854.243 310.552 872.055 298.322 893.622C285.58 916.099 279.056 941.491 279.407 967.246H329.974C329.713 949.662 333.963 932.299 342.329 916.774C350.124 902.182 361.886 890.025 376.295 881.669C391.041 873.197 407.846 868.85 424.907 869.096C441.974 868.847 458.788 873.194 473.541 881.669C487.949 890.025 499.712 902.182 507.507 916.774C515.873 932.299 520.123 949.662 519.862 967.246H570.429C570.832 941.422 564.306 915.952 551.514 893.422C539.232 871.946 521.212 854.211 499.42 842.152Z" fill="black"/>
<path d="M589.343 175.433C576.589 197.897 570.064 223.286 570.429 249.035H620.995C620.741 231.455 624.983 214.095 633.328 198.563C641.157 183.981 652.93 171.829 667.338 163.458C668.551 162.749 669.787 162.128 671.022 161.485V111.589C660.732 114.593 650.821 118.745 641.482 123.963C619.619 136.035 601.572 153.851 589.343 175.433Z" fill="black"/>
<path d="M589.343 749.989C576.585 772.459 570.06 797.856 570.428 823.613C570.168 846.065 575.076 868.282 584.783 888.588L630.407 868.319C624.013 854.27 620.801 839.013 620.995 823.613C620.739 806.032 624.981 788.672 633.328 773.14C641.15 758.548 652.924 746.387 667.338 738.014C668.551 737.326 669.787 736.683 671.022 736.04V686.144C660.732 689.149 650.821 693.3 641.482 698.518C619.624 710.597 601.578 728.411 589.343 749.989Z" fill="black"/>
<path d="M633.328 874.085C632.294 872.178 631.328 870.271 630.407 868.319L584.783 888.588C586.198 891.515 587.703 894.398 589.276 897.214C601.492 918.791 619.523 936.606 641.37 948.685C650.709 953.903 660.619 958.054 670.91 961.059V911.163C669.674 910.52 668.439 909.899 667.226 909.189C652.854 900.809 641.12 888.657 633.328 874.085Z" fill="#E6007E"/>
<path d="M279.407 392.757C279.157 415.187 284.065 437.38 293.762 457.666L339.409 437.397C333.007 423.35 329.787 408.093 329.974 392.691C329.713 375.107 333.963 357.744 342.329 342.218C350.129 327.63 361.89 315.475 376.294 307.114C391.047 298.659 407.85 294.32 424.907 294.562C441.971 294.317 458.782 298.656 473.541 307.114C487.944 315.487 499.703 327.649 507.507 342.241C515.872 357.766 520.123 375.129 519.862 392.713C520.048 408.115 516.828 423.372 510.427 437.419L556.164 457.733C565.836 437.402 570.713 415.172 570.428 392.713C570.832 366.888 564.306 341.419 551.514 318.889C539.223 297.412 521.196 279.677 499.397 267.619C476.647 255.086 450.957 248.684 424.907 249.057C398.857 248.686 373.167 255.088 350.416 267.619C328.574 279.704 310.545 297.517 298.322 319.089C285.578 341.565 279.054 366.958 279.407 392.713V392.757Z" fill="black"/>
<path d="M507.507 443.163C499.703 457.748 487.943 469.903 473.541 478.268C458.788 486.743 441.974 491.089 424.907 490.841C407.846 491.086 391.041 486.74 376.295 478.268C361.886 469.911 350.124 457.755 342.329 443.163C341.273 441.256 340.307 439.349 339.409 437.397L293.762 457.666C295.177 460.593 296.682 463.476 298.255 466.292C310.486 487.886 328.542 505.71 350.416 517.785C373.167 530.316 398.857 536.717 424.907 536.346C450.957 536.719 476.647 530.318 499.397 517.785C521.206 505.739 539.236 488.001 551.514 466.514C553.176 463.653 554.726 460.704 556.164 457.644L510.427 437.331C509.529 439.349 508.54 441.256 507.507 443.163Z" fill="#E6007E"/>
<path d="M260.492 1180.71C248.216 1159.23 230.195 1141.49 208.398 1129.44C185.646 1116.91 159.957 1110.51 133.908 1110.88C107.858 1110.51 82.1671 1116.91 59.4171 1129.44C37.5688 1141.52 19.5317 1159.34 7.30056 1180.91C4.57576 1185.67 2.13791 1190.57 -0.000244141 1195.61V1287H43.7148C40.4966 1276.47 38.8914 1265.53 38.9523 1254.53C38.6915 1236.95 42.9418 1219.59 51.3075 1204.06C59.104 1189.47 70.8656 1177.3 85.2732 1168.94C100.033 1160.48 116.843 1156.14 133.908 1156.38C150.971 1156.15 167.779 1160.49 182.542 1168.94C196.938 1177.31 208.69 1189.47 216.485 1204.06C224.851 1219.59 229.101 1236.95 228.841 1254.53C228.913 1265.53 227.307 1276.48 224.078 1287H276.15C278.348 1276.32 279.44 1265.44 279.407 1254.53C279.811 1228.71 273.285 1203.24 260.492 1180.71Z" fill="black"/>
<path d="M152.912 31.7781C140.154 54.2486 133.63 79.6451 133.998 105.402C133.737 127.861 138.646 150.085 148.352 170.399L193.977 150.109C187.5 136.048 184.219 120.759 184.362 105.313C184.116 87.7312 188.365 70.3718 196.717 54.8409C204.522 40.2562 216.282 28.1017 230.683 19.7364C245.437 11.2644 262.25 6.9178 279.317 7.16275C296.454 6.91232 313.334 11.291 328.132 19.8252C342.532 28.1905 354.292 40.345 362.097 54.9297C370.449 70.4606 374.699 87.8199 374.452 105.402C374.639 120.804 371.419 136.061 365.018 150.109L410.754 170.422C420.405 150.057 425.245 127.794 424.907 105.313C425.317 79.491 418.799 54.0213 406.014 31.4898C399.271 19.7951 390.808 9.15289 380.9 -0.0888062H177.96C168.049 9.24234 159.607 19.9833 152.912 31.7781Z" fill="black"/>
<path d="M362.008 155.874C354.227 170.447 342.499 182.601 328.132 190.979C313.377 199.451 296.564 203.797 279.497 203.552C262.43 203.797 245.617 199.451 230.863 190.979C216.462 182.614 204.702 170.459 196.897 155.874C195.864 153.989 194.898 152.06 193.977 150.109L148.352 170.4C149.768 173.305 151.273 176.187 152.845 179.026C165.075 200.593 183.103 218.405 204.939 230.496C227.695 243.013 253.383 249.406 279.43 249.035C305.477 249.406 331.165 243.013 353.92 230.496C375.719 218.438 393.746 200.703 406.037 179.226C407.699 176.343 409.227 173.416 410.687 170.355L364.95 150.042C364.074 152.06 363.041 154.1 362.008 155.874Z" fill="#E6007E"/>
<path d="M589.343 462.7C576.591 485.173 570.067 510.568 570.428 536.324C570.168 558.783 575.076 581.008 584.783 601.322L630.43 581.031C624.018 566.987 620.798 551.727 620.995 536.324C620.741 518.744 624.982 501.384 633.328 485.852C641.144 471.261 652.921 459.106 667.338 450.747C668.551 450.038 669.787 449.394 671.022 448.751V398.878C660.712 401.906 650.786 406.088 641.437 411.341C619.616 423.402 601.589 441.174 589.343 462.7Z" fill="black"/>
<path d="M633.328 586.796C632.294 584.911 631.328 582.982 630.43 581.031L584.783 601.322C586.198 604.227 587.703 607.11 589.276 609.948C601.505 631.515 619.533 649.327 641.37 661.418C650.709 666.63 660.62 670.773 670.91 673.77V623.896C669.674 623.253 668.439 622.61 667.226 621.901C652.85 613.526 641.114 601.372 633.328 586.796Z" fill="#E6007E"/>
<path d="M133.908 823.635C133.654 846.077 138.554 868.283 148.24 888.588L193.887 868.319C187.485 854.272 184.265 839.015 184.452 823.613C184.203 806.03 188.452 788.67 196.807 773.14C204.617 758.554 216.375 746.393 230.773 738.014C245.533 729.559 262.343 725.221 279.407 725.462V679.957C253.357 679.584 227.667 685.986 204.917 698.518C183.113 710.623 165.118 728.434 152.912 749.989C140.154 772.459 133.63 797.856 133.998 823.613L133.908 823.635Z" fill="black"/>
<path d="M152.912 897.214C165.134 918.793 183.164 936.614 205.007 948.707C227.762 961.223 253.45 967.616 279.497 967.246V921.763C262.43 922.008 245.617 917.661 230.863 909.189C216.466 900.818 204.708 888.666 196.897 874.085C195.864 872.178 194.898 870.271 193.977 868.319L148.33 888.588C149.678 891.515 151.183 894.398 152.912 897.214Z" fill="#E6007E"/>
<path d="M329.974 1110.9C329.713 1093.32 333.963 1075.95 342.329 1060.43C350.125 1045.83 361.887 1033.67 376.294 1025.3C391.041 1016.83 407.846 1012.48 424.907 1012.73V967.246C398.857 966.875 373.167 973.276 350.416 985.807C328.574 997.892 310.545 1015.71 298.322 1037.28C285.591 1059.72 279.067 1085.07 279.407 1110.79C279.146 1133.24 284.055 1155.46 293.762 1175.77L339.409 1155.48C333.025 1141.47 329.805 1126.26 329.974 1110.9Z" fill="black"/>
<path d="M424.907 1209.05C407.846 1209.3 391.041 1204.95 376.294 1196.48C361.893 1188.11 350.133 1175.96 342.329 1161.37C341.273 1159.47 340.307 1157.56 339.409 1155.59L293.762 1175.88C295.177 1178.8 296.705 1181.66 298.255 1184.5C310.478 1206.07 328.507 1223.89 350.349 1235.97C373.08 1248.49 398.745 1254.89 424.772 1254.53L424.907 1209.05Z" fill="#E6007E"/>
<path d="M48.3872 581.031C41.9858 566.983 38.766 551.726 38.9523 536.324C38.6915 518.74 42.9418 501.377 51.3075 485.851C59.1025 471.26 70.865 459.103 85.2732 450.747C100.027 442.272 116.84 437.925 133.908 438.173V392.691C107.861 392.32 82.1728 398.713 59.4171 411.23C37.5688 423.313 19.5317 441.127 7.30056 462.7C4.58009 467.457 2.14237 472.366 -0.000244141 477.403V595.201C0.875852 597.241 1.77442 599.303 2.74037 601.322L48.3872 581.031Z" fill="black"/>
<path d="M7.30067 609.948C19.5318 631.521 37.5689 649.335 59.4172 661.418C82.1729 673.935 107.861 680.328 133.908 679.957V634.474C116.84 634.723 100.027 630.376 85.2733 621.901C70.8651 613.545 59.1026 601.388 51.3077 586.796C50.2743 584.911 49.2859 582.982 48.3874 581.031L2.74048 601.322C4.15571 604.271 5.68326 607.11 7.30067 609.948Z" fill="#E6007E"/>
<path d="M443.821 31.7781C431.077 54.2541 424.554 79.6468 424.907 105.402H475.473C475.212 87.8183 479.463 70.4555 487.828 54.9297C495.623 40.3381 507.386 28.1813 521.794 19.8253C536.547 11.3501 553.361 7.00325 570.429 7.25156V0H468.959C459.036 9.3096 450.565 20.0185 443.821 31.7781Z" fill="black"/>
<path d="M70.9862 773.14C79.352 788.666 83.6023 806.029 83.3415 823.613H133.908C134.261 797.858 127.737 772.465 114.993 749.989C102.762 728.415 84.725 710.602 62.8768 698.518C43.5816 687.823 22.07 681.611 -0.0224609 680.356V726.105C13.0412 727.402 25.6681 731.464 36.9982 738.014C51.414 746.377 63.1837 758.541 70.9862 773.14Z" fill="black"/>
<path d="M70.9862 198.563C79.352 214.089 83.6023 231.452 83.3415 249.035H133.908C134.261 223.287 127.738 197.901 114.993 175.433C102.768 153.856 84.7293 136.041 62.8768 123.963C43.586 113.257 22.0719 107.045 -0.0224609 105.801V151.528C13.0426 152.833 25.6694 156.903 36.9982 163.458C51.408 171.82 63.1764 183.975 70.9862 198.563Z" fill="black"/>
<path d="M260.492 1037.28C248.269 1015.71 230.24 997.892 208.398 985.807C185.648 973.274 159.958 966.873 133.908 967.246V1012.73C150.975 1012.48 167.788 1016.83 182.542 1025.3C196.94 1033.68 208.698 1045.84 216.508 1060.43C224.858 1075.96 229.1 1093.32 228.841 1110.9H279.407C279.767 1085.15 273.243 1059.75 260.492 1037.28Z" fill="black"/>
<path d="M424.907 1156.45C441.971 1156.21 458.782 1160.54 473.541 1169C487.949 1177.37 499.71 1189.53 507.507 1204.13C515.873 1219.65 520.123 1237.02 519.862 1254.6H570.429C570.782 1228.85 564.258 1203.45 551.514 1180.98C539.283 1159.4 521.246 1141.59 499.397 1129.51C476.646 1116.98 450.955 1110.59 424.907 1110.97V1156.45Z" fill="black"/>
<path d="M570.428 1110.9V1156.45C587.492 1156.21 604.302 1160.55 619.063 1169C633.46 1177.38 645.219 1189.54 653.029 1204.13C661.376 1219.66 665.617 1237.02 665.361 1254.6H666.507C669.514 1246.04 671.033 1237.05 671 1227.99V1148.33C663.096 1141.05 654.35 1134.72 644.942 1129.46C622.185 1116.92 596.486 1110.52 570.428 1110.9Z" fill="black"/>
<path d="M424.907 679.957C425.268 654.211 418.752 628.825 406.014 606.355C393.777 584.787 375.741 566.975 353.898 554.885C331.148 542.352 305.457 535.951 279.407 536.324V581.807C296.475 581.558 313.288 585.905 328.042 594.381C342.438 602.751 354.197 614.904 362.007 629.485C370.373 645.011 374.623 662.374 374.363 679.957H424.907Z" fill="black"/>
<path d="M279.407 392.757C253.36 392.387 227.672 398.78 204.917 411.296C183.122 423.382 165.127 441.169 152.912 462.7C140.16 485.173 133.636 510.568 133.998 536.324H184.564C184.31 518.744 188.552 501.384 196.897 485.851C204.702 471.267 216.462 459.112 230.862 450.747C245.617 442.275 262.43 437.928 279.497 438.173L279.407 392.757Z" fill="black"/>
<path d="M570.429 105.313C544.379 104.94 518.688 111.342 495.938 123.874C474.085 135.952 456.047 153.767 443.821 175.345C431.077 197.813 424.553 223.198 424.907 248.947H475.473C475.212 231.363 479.463 214 487.828 198.474C495.639 183.894 507.398 171.741 521.794 163.37C536.547 154.895 553.361 150.548 570.429 150.796V105.313Z" fill="black"/>
<path d="M487.828 773.14C495.625 758.544 507.386 746.38 521.794 738.014C536.55 729.546 553.363 725.207 570.429 725.462V679.957C544.379 679.584 518.688 685.986 495.938 698.518C474.09 710.602 456.053 728.415 443.821 749.989C431.077 772.465 424.554 797.858 424.907 823.613H475.473C475.212 806.029 479.463 788.666 487.828 773.14Z" fill="black"/>
<path d="M51.3075 916.774C59.1025 902.182 70.865 890.025 85.2732 881.669C100.027 873.194 116.84 868.847 133.908 869.096V823.635C107.861 823.264 82.1728 829.658 59.4171 842.174C37.5688 854.258 19.5317 872.071 7.30056 893.644C4.58009 898.401 2.14237 903.31 -0.000244141 908.347V967.268H38.9523C38.6877 949.677 42.9381 932.306 51.3075 916.774Z" fill="black"/>
<path d="M589.343 319.067C576.585 341.537 570.06 366.934 570.428 392.691H620.995C620.736 375.11 624.978 357.749 633.328 342.218C641.153 327.634 652.927 315.481 667.338 307.114C668.551 306.426 669.787 305.783 671.022 305.14V255.222C660.732 258.227 650.821 262.378 641.482 267.596C619.624 279.675 601.578 297.489 589.343 319.067Z" fill="black"/>
<path d="M51.3075 342.218C59.1074 327.63 70.8687 315.475 85.2732 307.114C100.029 298.647 116.842 294.307 133.908 294.562V249.035C107.858 248.662 82.1671 255.064 59.4171 267.596C37.5645 279.674 19.526 297.489 7.30056 319.067C4.57139 323.819 2.13341 328.729 -0.000244141 333.769V392.691H38.9523C38.6915 375.107 42.9418 357.744 51.3075 342.218Z" fill="black"/>
<path d="M38.9523 105.313C38.6915 87.7295 42.9418 70.3666 51.3075 54.8408C59.1025 40.2492 70.865 28.0924 85.2732 19.7363C100.027 11.2612 116.84 6.91432 133.908 7.16263V-0.0889282H32.4378C22.5089 9.21471 14.0371 19.9246 7.30056 31.6892C4.58009 36.4461 2.14237 41.3553 -0.000244141 46.3918V105.313H38.9523Z" fill="black"/>
<path d="M443.821 606.355C431.077 628.823 424.553 654.209 424.907 679.957H475.473C475.212 662.374 479.463 645.011 487.828 629.485C495.632 614.899 507.392 602.745 521.794 594.381C536.547 585.905 553.361 581.558 570.429 581.807V536.324C544.379 535.951 518.688 542.352 495.938 554.885C474.09 566.969 456.053 584.782 443.821 606.355Z" fill="black"/>
<path d="M662.598 1263.45C647.472 1268.86 633.416 1276.83 621.062 1287H629.509C642.987 1287 655.005 1277.73 662.598 1263.45Z" fill="black"/>
<path d="M424.839 1254.53C398.814 1254.17 373.149 1260.56 350.416 1273.07C343.223 1277.12 336.405 1281.78 330.041 1287H424.907V1254.53H424.839Z" fill="black"/>
<path d="M475.473 1254.53H424.907C424.881 1265.44 425.988 1276.32 428.209 1287H480.236C477.017 1276.47 475.412 1265.53 475.473 1254.53Z" fill="black"/>
<path d="M279.407 536.324H228.841C229.027 551.726 225.807 566.983 219.406 581.031L265.053 601.322C274.759 581.007 279.667 558.783 279.407 536.324Z" fill="black"/>
<path d="M133.908 679.957C159.954 680.325 185.642 673.932 208.398 661.418C230.235 649.327 248.263 631.515 260.492 609.948C262.132 607.11 263.637 604.227 264.985 601.322L219.338 581.031C218.44 582.982 217.474 584.911 216.418 586.796C208.664 601.417 196.933 613.613 182.542 622.012C167.788 630.484 150.975 634.83 133.908 634.585V679.957Z" fill="#E6007E"/>
<path d="M279.407 249.035H228.841C229.037 264.46 225.817 279.741 219.406 293.808L265.053 314.099C274.771 293.766 279.68 271.517 279.407 249.035Z" fill="black"/>
<path d="M208.398 374.129C230.243 362.038 248.273 344.217 260.492 322.637C262.132 319.798 263.637 316.938 264.985 314.011L219.406 293.808C218.507 295.76 217.541 297.689 216.508 299.596C208.691 314.172 196.934 326.323 182.542 334.701C167.788 343.173 150.975 347.519 133.908 347.274V392.757C159.964 393.108 185.654 386.683 208.398 374.129Z" fill="#E6007E"/>
<path d="M619.063 47.3455C604.308 55.8175 587.496 60.1642 570.428 59.9193V105.313C596.455 105.706 622.129 99.3351 644.874 86.8407C654.287 81.592 663.035 75.2569 670.932 67.969V59.0987C670.932 39.3843 664.058 21.8655 653.568 11.1323L652.984 12.2854C645.179 26.8438 633.437 38.9803 619.063 47.3455Z" fill="#E6007E"/>
<path d="M424.907 679.957H374.363C374.549 695.359 371.329 710.616 364.928 724.664L410.575 744.955C420.267 724.636 425.167 702.414 424.907 679.957Z" fill="black"/>
<path d="M362.007 730.429C354.229 745.009 342.501 757.17 328.132 765.556C313.378 774.031 296.565 778.378 279.497 778.13V823.613C305.547 823.986 331.238 817.584 353.988 805.051C375.836 792.968 393.873 775.154 406.104 753.581C407.722 750.742 409.249 747.882 410.597 744.955L364.95 724.664C364.074 726.615 363.041 728.456 362.007 730.429Z" fill="#E6007E"/>
<path d="M133.908 967.246H83.274C83.4604 982.648 80.2405 997.905 73.8391 1011.95L119.486 1032.24C129.218 1011.94 134.149 989.71 133.908 967.246Z" fill="black"/>
<path d="M114.993 1040.87C116.61 1038.03 118.138 1035.15 119.486 1032.24L73.839 1011.95C72.9179 1013.9 71.952 1015.83 70.9187 1017.72C63.1222 1032.31 51.3607 1044.48 36.9531 1052.84C25.623 1059.39 12.996 1063.46 -0.067627 1064.75V1110.5C22.0248 1109.25 43.5365 1103.04 62.8316 1092.34C84.6914 1080.26 102.743 1062.44 114.993 1040.87Z" fill="#E6007E"/>
<path d="M652.984 1017.72C645.179 1032.3 633.419 1044.46 619.018 1052.82C604.263 1061.29 587.451 1065.64 570.384 1065.4C553.316 1065.64 536.502 1061.3 521.749 1052.82C507.341 1044.47 495.578 1032.31 487.783 1017.72C486.75 1015.83 485.784 1013.93 484.863 1011.97L439.261 1032.24C440.676 1035.15 442.204 1038.03 443.754 1040.87C455.992 1062.44 474.027 1080.25 495.871 1092.34C518.626 1104.86 544.314 1111.25 570.361 1110.88C596.415 1111.25 622.11 1104.85 644.874 1092.34C654.294 1087.07 663.054 1080.73 670.978 1073.45V1018.67L655.882 1012.02C654.983 1013.9 654.017 1015.83 652.984 1017.72Z" fill="#E6007E"/>
<path d="M665.361 967.246C665.548 982.648 662.328 997.905 655.927 1011.95L670.977 1018.61V967.202L665.361 967.246Z" fill="black"/>
<path d="M484.863 1011.97C478.462 997.927 475.242 982.67 475.428 967.268H424.862C424.601 989.72 429.509 1011.94 439.216 1032.24L484.818 1011.97H484.863Z" fill="black"/>
<path d="M484.886 1011.95H484.863L439.261 1032.22H439.284L484.886 1011.95Z" fill="black"/>
</g>
</svg>
