<svg width="411" height="411" viewBox="0 0 411 411" fill="none" xmlns="http://www.w3.org/2000/svg">
<g clip-path="url(#clip0_183_10415)">
<path d="M71.4058 205.482C71.015 180.335 76.9873 155.498 88.7679 133.279C99.7685 112.398 116.376 95.0002 136.722 83.0408C157.689 71.2537 181.338 65.0622 205.391 65.0622C229.445 65.0622 253.093 71.2537 274.06 83.0408C294.404 95.0161 311.018 112.409 322.051 133.279C333.857 155.492 339.854 180.329 339.486 205.482C339.794 227.54 335.279 249.399 326.255 269.53L390.847 298.527C404.527 269.439 411.418 237.623 411 205.482C411.568 168.546 402.352 132.117 384.286 99.8956C366.935 69.2057 341.481 43.8767 310.706 26.6774C278.374 9.26037 242.224 0.1427 205.5 0.1427C168.776 0.1427 132.626 9.26037 100.294 26.6774C69.4384 43.965 43.971 69.4576 26.7138 100.331C8.71415 132.473 -0.499673 168.791 7.011e-06 205.627C-0.365348 237.755 6.57548 269.547 20.2981 298.599L84.7445 269.602C75.6734 249.458 71.1206 227.572 71.4058 205.482Z" fill="#1D1D1B"/>
<path d="M100.294 384.431C132.626 401.848 168.776 410.966 205.5 410.966C242.224 410.966 278.374 401.848 310.706 384.431C341.5 367.193 366.956 341.811 384.286 311.068C386.642 306.972 388.817 302.768 390.847 298.527L326.255 269.53C324.987 272.357 323.61 275.075 322.16 277.794C311.127 298.663 294.512 316.056 274.169 328.032C253.202 339.819 229.553 346.01 205.5 346.01C181.447 346.01 157.798 339.819 136.831 328.032C116.429 316.059 99.7816 298.62 88.7679 277.685C87.2818 274.967 85.9044 272.248 84.6357 269.421L20.1893 298.418C22.1829 302.587 24.3215 306.719 26.605 310.778C43.8979 341.661 69.4029 367.154 100.294 384.431Z" fill="#E6007E"/>
</g>
<defs>
<clipPath id="clip0_183_10415">
<rect width="411" height="411" fill="white"/>
</clipPath>
</defs>
</svg>
