<svg width="129" height="81" viewBox="0 0 129 81" fill="none" xmlns="http://www.w3.org/2000/svg">
<path d="M21.8915 80.8194C42.2893 80.8194 60.684 76.2398 77.0754 67.0807C93.2496 58.1283 106.601 44.9385 115.655 28.9684C116.859 26.8698 117.985 24.7402 119.033 22.5798C124.578 11.0773 127.994 -1.31099 129.118 -14H91.4686C90.497 -6.54736 88.398 0.719298 85.2414 7.5574C84.5688 9.02157 83.8466 10.4272 83.08 11.8328C76.9798 22.9604 68.5928 31.6267 57.9191 37.8315C47.2453 44.0363 35.2362 47.1387 21.8915 47.1387C14.4753 47.184 7.09471 46.1227 0 43.9908V78.9209C7.22428 80.2034 14.5513 80.8388 21.8915 80.8194Z" fill="#E6007E"/>
</svg>
