<svg width="15" height="15" viewBox="0 0 15 15" fill="none" xmlns="http://www.w3.org/2000/svg">
<path d="M1.68629 14.9888C2.24877 14.998 2.67093 14.789 3.03032 14.4293C3.94126 13.5156 4.85353 12.603 5.76714 11.6914C6.31242 11.1459 6.85931 10.6019 7.40219 10.0527C7.47015 9.98359 7.50933 9.98319 7.57729 10.0527C8.39869 10.8774 9.22194 11.7006 10.0471 12.5224C10.6987 13.1735 11.3459 13.8293 12.0035 14.4748C12.5408 15.0028 13.1817 15.1295 13.8797 14.8693C14.8843 14.4952 15.296 13.251 14.7136 12.3513C14.5589 12.1115 14.3426 11.9117 14.1395 11.7058C12.7734 10.3349 11.4049 8.96613 10.0343 7.59948C9.96831 7.53353 9.95912 7.49516 10.0311 7.42362C11.1672 6.29279 12.3016 5.16035 13.4343 4.02632C13.7801 3.68099 14.1295 3.33927 14.4709 2.98914C14.6376 2.82765 14.7702 2.63445 14.8611 2.42092C14.952 2.20739 14.9992 1.97784 15 1.74579C15.0008 1.51374 14.9551 1.28388 14.8658 1.06973C14.7764 0.855578 14.645 0.661472 14.4795 0.498833C14.3139 0.336195 14.1175 0.208311 13.9018 0.122708C13.686 0.0371057 13.4553 -0.00448557 13.2233 0.000382988C12.9912 0.00525155 12.7625 0.0564817 12.5506 0.151057C12.3386 0.245633 12.1477 0.381643 11.9891 0.551082C11.1363 1.41013 10.2803 2.26639 9.42103 3.11984C8.81178 3.72896 8.2028 4.33821 7.59408 4.94759C7.48814 5.0535 7.48854 5.0543 7.385 4.95079C5.92451 3.49115 4.46456 2.03084 3.00513 0.569867C2.56539 0.127419 2.03729 -0.0476422 1.43204 0.0534774C0.555348 0.199361 -0.0471039 0.986336 0.00646496 1.87323C0.0372467 2.36924 0.268312 2.76013 0.615712 3.10225C1.35489 3.83048 2.08606 4.56749 2.82004 5.30051L4.92403 7.40204C5.03036 7.50875 5.03036 7.50915 4.92163 7.61787C3.93126 8.60801 2.9409 9.59803 1.95054 10.5879C1.47082 11.0675 0.991096 11.5471 0.511373 12.0268C0.313663 12.2236 0.166286 12.4651 0.0817156 12.731C-0.00285435 12.9968 -0.02213 13.2791 0.0255184 13.5539C0.0731678 13.8288 0.186337 14.0881 0.355455 14.31C0.524573 14.5318 0.74466 14.7097 0.997092 14.8285C1.2107 14.9363 1.44705 14.9913 1.68629 14.9888Z" fill="white"/>
</svg>
