<svg width="423" height="122" viewBox="0 0 423 122" fill="none" xmlns="http://www.w3.org/2000/svg">
<g style="mix-blend-mode:multiply" opacity="0.58">
<g style="mix-blend-mode:multiply">
<path opacity="0.02" d="M104.473 68.1671C104.513 78.6135 101.49 88.8369 95.7855 97.5424C90.0814 106.248 81.9534 113.044 72.4308 117.069C62.9083 121.095 52.4197 122.169 42.2937 120.155C32.1677 118.142 22.8599 113.131 15.5493 105.758C8.23864 98.3852 3.25411 88.9817 1.22706 78.7388C-0.799991 68.4959 0.221646 57.8744 4.16256 48.2198C8.10348 38.5651 14.7864 30.3117 23.3647 24.5049C31.943 18.6982 42.0309 15.5993 52.3504 15.6009C59.1826 15.5874 65.9504 16.9364 72.2676 19.5709C78.5847 22.2054 84.3272 26.0738 89.1674 30.9551C94.0075 35.8364 97.8503 41.6351 100.476 48.02C103.103 54.4049 104.461 61.2509 104.473 68.1671Z" fill="#FDFDFD"/>
<path opacity="0.04" d="M104.693 67.8329C104.733 78.2789 101.71 88.502 96.0063 97.2073C90.3026 105.913 82.175 112.709 72.653 116.734C63.1309 120.76 52.6428 121.835 42.5171 119.822C32.3913 117.809 23.0835 112.799 15.7725 105.427C8.46153 98.0548 3.47632 88.6522 1.44831 78.4099C-0.579693 68.1675 0.440737 57.5463 4.38035 47.8915C8.31997 38.2367 15.0015 29.9827 23.5787 24.1749C32.156 18.3671 42.243 15.2668 52.5621 15.2667C59.3947 15.2532 66.163 16.6021 72.4806 19.2365C78.7982 21.8709 84.5413 25.7392 89.3821 30.6204C94.2229 35.5016 98.0666 41.3002 100.694 47.6852C103.321 54.0701 104.68 60.9163 104.693 67.8329Z" fill="#FBFBFB"/>
<path opacity="0.06" d="M104.905 67.533C104.955 77.9811 101.94 88.2091 96.2428 96.9212C90.5452 105.633 82.4212 112.437 72.9001 116.471C63.379 120.504 52.8893 121.586 42.7602 119.579C32.6311 117.572 23.3185 112.566 16.0025 105.197C8.68641 97.8266 3.69616 88.4241 1.664 78.1804C-0.368154 67.9367 0.649275 57.3128 4.58736 47.655C8.52544 37.9972 15.2069 29.7401 23.7852 23.93C32.3635 18.1199 42.4525 15.0183 52.7738 15.0182C66.564 14.9908 79.8009 20.5067 89.5759 30.3537C99.3509 40.2006 104.864 53.5732 104.905 67.533Z" fill="#F9F9F9"/>
<path opacity="0.08" d="M105.117 67.2328C105.159 77.6788 102.137 87.9024 96.4348 96.6087C90.7325 105.315 82.606 112.112 73.0846 116.139C63.5632 120.167 53.0753 121.243 42.9492 119.232C32.8231 117.22 23.5145 112.212 16.2023 104.841C8.89018 97.4706 3.90347 88.0688 1.87381 77.8268C-0.155843 67.5848 0.862878 56.9634 4.80094 47.308C8.739 37.6525 15.4192 29.3974 23.9955 23.5881C32.5718 17.7789 42.6583 14.677 52.9774 14.6752C59.8103 14.6594 66.5793 16.0065 72.8979 18.6394C79.2164 21.2724 84.9606 25.1396 89.8024 30.0203C94.6442 34.9009 98.4888 40.6994 101.116 47.0844C103.744 53.4694 105.103 60.3159 105.117 67.2328Z" fill="#F7F7F7"/>
<path opacity="0.1" d="M105.337 66.9413C105.377 77.3873 102.354 87.6104 96.6498 96.3157C90.9462 105.021 82.8185 111.817 73.2965 115.843C63.7744 119.868 53.2863 120.943 43.1606 118.93C33.0348 116.917 23.727 111.907 16.4161 104.535C9.10508 97.1633 4.11988 87.7606 2.09187 77.5183C0.0638616 67.276 1.08429 56.6548 5.02391 46.9999C8.96353 37.3451 15.6451 29.0911 24.2223 23.2833C32.7995 17.4755 42.8865 14.3752 53.2057 14.3751C60.0385 14.3605 66.8074 15.7087 73.1255 18.3426C79.4436 20.9766 85.1871 24.8448 90.0282 29.7262C94.8692 34.6077 98.7128 40.4068 101.339 46.7922C103.966 53.1777 105.324 60.0244 105.337 66.9413Z" fill="#F5F5F5"/>
<path opacity="0.12" d="M105.548 66.6412C105.589 77.0872 102.565 87.3103 96.8618 96.0156C91.1581 104.721 83.0305 111.517 73.5084 115.543C63.9864 119.568 53.4982 120.643 43.3725 118.63C33.2468 116.617 23.9389 111.607 16.628 104.235C9.317 96.8631 4.33179 87.4605 2.30378 77.2182C0.275776 66.9758 1.29621 56.3546 5.23582 46.6998C9.17544 37.045 15.857 28.791 24.4342 22.9832C33.0114 17.1754 43.0984 14.0751 53.4176 14.0751C60.2501 14.0615 67.0185 15.4104 73.3361 18.0448C79.6536 20.6792 85.3968 24.5475 90.2376 29.4287C95.0784 34.3099 98.922 40.1085 101.549 46.4935C104.176 52.8784 105.535 59.7246 105.548 66.6412Z" fill="#F3F3F3"/>
<path opacity="0.14" d="M105.76 66.3412C105.802 76.7879 102.78 87.0121 97.0772 95.7187C91.3741 104.425 83.2466 111.223 73.7243 115.249C64.2019 119.276 53.7131 120.351 43.5865 118.339C33.46 116.326 24.1514 111.316 16.8399 103.944C9.52842 96.5712 4.54303 87.1677 2.51529 76.9246C0.487544 66.6815 1.50868 56.0596 5.44934 46.4044C9.39001 36.7492 16.0729 28.4953 24.6514 22.6882C33.2299 16.881 43.3181 13.7819 53.6379 13.7835C60.4694 13.77 67.2366 15.1187 73.5532 17.7527C79.8697 20.3866 85.6119 24.2542 90.452 29.1347C95.292 34.0151 99.135 39.8128 101.762 46.1967C104.388 52.5806 105.747 59.4257 105.76 66.3412Z" fill="#F1F1F1"/>
<path opacity="0.16" d="M105.981 66.0412C106.022 76.4864 103.001 86.7093 97.2997 95.4152C91.5982 104.121 83.4727 110.918 73.9523 114.946C64.4319 118.974 53.9448 120.051 43.8192 118.041C33.6936 116.031 24.3849 111.025 17.0721 103.656C9.75929 96.2867 4.77123 86.8865 2.73966 76.6456C0.708096 66.4047 1.7244 55.7839 5.65987 46.1282C9.59533 36.4724 16.2729 28.2161 24.847 22.4048C33.421 16.5935 43.5058 13.4887 53.8243 13.4836C60.6583 13.4667 67.4286 14.8128 73.7486 17.4451C80.0686 20.0775 85.8143 23.9444 90.6577 28.8251C95.5011 33.7057 99.3472 39.5045 101.976 45.8901C104.605 52.2757 105.966 59.1231 105.981 66.0412Z" fill="#EFEFEF"/>
<path opacity="0.18" d="M106.192 65.7497C106.232 76.1957 103.209 86.4187 97.5053 95.1241C91.8016 103.829 83.674 110.625 74.152 114.651C64.6299 118.677 54.1418 119.751 44.0161 117.738C33.8903 115.725 24.5825 110.716 17.2715 103.344C9.96056 95.9716 4.97535 86.569 2.94735 76.3266C0.919337 66.0843 1.93974 55.4631 5.87936 45.8083C9.81898 36.1535 16.5006 27.8995 25.0778 22.0917C33.655 16.2839 43.742 13.1835 54.0611 13.1835C60.894 13.1688 67.6628 14.517 73.9809 17.151C80.299 19.785 86.0426 23.6531 90.8836 28.5346C95.7246 33.416 99.5682 39.2151 102.195 45.6006C104.822 51.986 106.18 58.8328 106.192 65.7497Z" fill="#EDEDED"/>
<path opacity="0.2" d="M106.412 65.4496C106.452 75.8956 103.429 86.1187 97.7255 94.824C92.0218 103.529 83.8942 110.325 74.3722 114.351C64.8501 118.377 54.362 119.451 44.2363 117.438C34.1105 115.425 24.8027 110.416 17.4917 103.044C10.1808 95.6715 5.19556 86.2689 3.16755 76.0266C1.13955 65.7842 2.15998 55.163 6.09959 45.5082C10.0392 35.8534 16.7208 27.5993 25.298 21.7915C33.8752 15.9837 43.9622 12.8835 54.2814 12.8834C61.1139 12.8699 67.8822 14.2188 74.1998 16.8532C80.5174 19.4876 86.2606 23.3558 91.1014 28.237C95.9422 33.1183 99.7858 38.9169 102.413 45.3018C105.04 51.6868 106.399 58.533 106.412 65.4496Z" fill="#EBEBEB"/>
<path opacity="0.22" d="M106.624 65.1498C106.666 75.5961 103.644 85.8201 97.9415 94.5265C92.2389 103.233 84.1119 110.03 74.59 114.057C65.0681 118.084 54.5797 119.16 44.4534 117.148C34.3271 115.136 25.0185 110.127 17.7067 102.755C10.3948 95.3837 5.40879 85.9811 3.3801 75.7385C1.3514 65.4959 2.37133 54.8743 6.31069 45.219C10.2501 35.5637 16.9316 27.3091 25.509 21.5009C34.0864 15.6927 44.1737 12.5922 54.4932 12.5921C68.2908 12.5648 81.5341 18.0866 91.3102 27.9428C101.086 37.799 106.595 51.1825 106.624 65.1498Z" fill="#E9E9E9"/>
<path opacity="0.24" d="M106.835 64.8497C106.877 75.2964 103.855 85.5206 98.1524 94.2273C92.4493 102.934 84.3218 109.731 74.7994 113.758C65.2771 117.785 54.7882 118.86 44.6617 116.847C34.5352 114.835 25.2266 109.825 17.9151 102.452C10.6036 95.0797 5.61822 85.6763 3.59048 75.4332C1.56274 65.19 2.58388 54.5681 6.52454 44.9129C10.4652 35.2578 17.1481 27.0038 25.7266 21.1967C34.3051 15.3895 44.3932 12.2905 54.7131 12.2921C61.5446 12.2786 68.3118 13.6273 74.6283 16.2612C80.9449 18.8952 86.6871 22.7628 91.5272 27.6432C96.3672 32.5236 100.21 38.3213 102.837 44.7052C105.463 51.0891 106.822 57.9342 106.835 64.8497Z" fill="#E7E7E7"/>
<path opacity="0.25" d="M107.056 64.5583C107.096 75.0042 104.073 85.2273 98.3691 93.9326C92.6654 102.638 84.5378 109.434 75.0158 113.46C65.4937 117.485 55.0056 118.56 44.8798 116.547C34.7541 114.534 25.4463 109.524 18.1353 102.152C10.8243 94.7802 5.83912 85.3776 3.81111 75.1352C1.7831 64.8929 2.80353 54.2717 6.74315 44.6169C10.6828 34.9621 17.3643 26.7081 25.9415 20.9003C34.5188 15.0924 44.6058 11.9921 54.9249 11.9921C61.7578 11.9774 68.5266 13.3256 74.8447 15.9596C81.1628 18.5936 86.9064 22.4618 91.7474 27.3432C96.5884 32.2247 100.432 38.0237 103.059 44.4092C105.685 50.7946 107.044 57.6414 107.056 64.5583Z" fill="#E5E5E5"/>
<path opacity="0.27" d="M107.268 64.2582C107.308 74.7042 104.285 84.9273 98.581 93.6326C92.8773 102.338 84.7497 109.134 75.2277 113.16C65.7056 117.185 55.2175 118.26 45.0917 116.247C34.966 114.234 25.6582 109.224 18.3472 101.852C11.0362 94.4801 6.05103 85.0775 4.02302 74.8352C1.99501 64.5928 3.01544 53.9716 6.95506 44.3168C10.8947 34.662 17.5762 26.408 26.1535 20.6002C34.7307 14.7924 44.8177 11.6921 55.1368 11.692C61.9694 11.6785 68.7377 13.0274 75.0553 15.6618C81.3729 18.2962 87.116 22.1644 91.9568 27.0456C96.7976 31.9269 100.641 37.7255 103.268 44.1105C105.895 50.4954 107.254 57.3416 107.268 64.2582Z" fill="#E3E3E3"/>
<path opacity="0.29" d="M107.479 63.9581C107.521 74.4048 104.499 84.629 98.7959 93.3357C93.0929 102.042 84.9654 108.84 75.443 112.866C65.9206 116.893 55.4318 117.968 45.3053 115.956C35.1788 113.943 25.8701 108.933 18.5587 101.561C11.2472 94.1881 6.26178 84.7846 4.23404 74.5415C2.20629 64.2984 3.22743 53.6765 7.16809 44.0213C11.1088 34.3662 17.7916 26.1122 26.3702 20.3051C34.9487 14.4979 45.0368 11.3989 55.3567 11.4005C62.1882 11.387 68.9554 12.7357 75.2719 15.3696C81.5885 18.0036 87.3307 21.8712 92.1707 26.7516C97.0107 31.632 100.854 37.4297 103.48 43.8136C106.107 50.1975 107.466 57.0426 107.479 63.9581Z" fill="#E1E1E1"/>
<path opacity="0.31" d="M107.699 63.6581C107.741 74.1044 104.719 84.3283 99.0168 93.0347C93.3141 101.741 85.1871 108.538 75.6652 112.566C66.1433 116.593 55.6549 117.668 45.5286 115.656C35.4023 113.644 26.0937 108.635 18.7819 101.264C11.47 93.892 6.48399 84.4893 4.45529 74.2467C2.42659 64.0042 3.44652 53.3826 7.38588 43.7273C11.3252 34.0719 18.0068 25.8174 26.5842 20.0092C35.1616 14.201 45.2489 11.1005 55.5684 11.1004C69.366 11.0731 82.6093 16.5948 92.3854 26.451C102.162 36.3073 107.67 49.6908 107.699 63.6581Z" fill="#DFDFDF"/>
<path opacity="0.33" d="M107.911 63.3666C107.951 73.8126 104.928 84.0357 99.2246 92.741C93.5209 101.446 85.3933 108.242 75.8712 112.268C66.3492 116.294 55.861 117.368 45.7353 115.355C35.6096 113.342 26.3017 108.333 18.9908 100.961C11.6798 93.5885 6.69459 84.1859 4.66658 73.9435C2.63858 63.7012 3.65898 53.08 7.5986 43.4252C11.5382 33.7704 18.2198 25.5164 26.797 19.7086C35.3742 13.9007 45.4612 10.8005 55.7804 10.8004C62.6133 10.7858 69.3821 12.1339 75.7002 14.7679C82.0182 17.4019 87.7618 21.2701 92.6029 26.1515C97.4439 31.033 101.287 36.8321 103.914 43.2175C106.541 49.603 107.899 56.4497 107.911 63.3666Z" fill="#DDDDDD"/>
<path opacity="0.35" d="M108.131 63.0666C108.172 73.5125 105.148 83.7356 99.4448 92.4409C93.7411 101.146 85.6135 107.942 76.0914 111.968C66.5694 115.994 56.0813 117.068 45.9555 115.055C35.8298 113.042 26.522 108.033 19.211 100.661C11.9 93.2885 6.9148 83.8858 4.88679 73.6435C2.85878 63.4012 3.87921 52.78 7.81883 43.1252C11.7584 33.4704 18.44 25.2163 27.0172 19.4085C35.5944 13.6007 45.6815 10.5004 56.0006 10.5003C62.8332 10.4868 69.6015 11.8358 75.9191 14.4702C82.2366 17.1046 87.9798 20.9728 92.8206 25.854C97.6614 30.7352 101.505 36.5339 104.132 42.9188C106.759 49.3038 108.118 56.15 108.131 63.0666Z" fill="#DBDBDB"/>
<path opacity="0.37" d="M108.343 62.7665C108.385 73.2128 105.363 83.4367 99.6603 92.1431C93.9576 100.85 85.8306 107.647 76.3087 111.674C66.7868 115.701 56.2985 116.777 46.1722 114.765C36.0459 112.753 26.7372 107.744 19.4254 100.372C12.1136 93.0004 7.12754 83.5977 5.09885 73.3551C3.07015 63.1126 4.09008 52.491 8.02944 42.8357C11.9688 33.1803 18.6504 24.9258 27.2278 19.1176C35.8052 13.3094 45.8925 10.2089 56.212 10.2088C70.0095 10.1815 83.2528 15.7032 93.029 25.5594C102.805 35.4157 108.314 48.7992 108.343 62.7665Z" fill="#D9D9D9"/>
<path opacity="0.39" d="M108.555 62.4665C108.59 72.9118 105.562 83.1327 99.8552 91.8348C94.1481 100.537 86.0182 107.329 76.4952 111.35C66.9722 115.372 56.4844 116.442 46.3601 114.426C36.2358 112.409 26.9304 107.397 19.6223 100.023C12.3142 92.6487 7.33219 83.2452 5.30721 73.003C3.28224 62.7608 4.30535 52.1406 8.24703 42.4875C12.1887 32.8343 18.8716 24.5824 27.4494 18.7768C36.0272 12.9712 46.114 9.87298 56.4325 9.87461C63.2668 9.86109 70.0368 11.211 76.3555 13.8471C82.6743 16.4832 88.418 20.3538 93.2585 25.2379C98.0989 30.1219 101.941 35.9236 104.566 42.3115C107.19 48.6994 108.546 55.5482 108.555 62.4665Z" fill="#D7D7D7"/>
<path opacity="0.41" d="M108.775 62.1664C108.815 72.6124 105.792 82.8355 100.088 91.5408C94.3846 100.246 86.257 107.042 76.735 111.068C67.2129 115.094 56.7248 116.168 46.5991 114.155C36.4733 112.142 27.1655 107.132 19.8545 99.7604C12.5436 92.3884 7.55835 82.9857 5.53035 72.7434C3.50234 62.5011 4.52277 51.8798 8.46239 42.225C12.402 32.5702 19.0836 24.3162 27.6608 18.5084C36.238 12.7006 46.325 9.6003 56.6441 9.60022C63.477 9.58557 70.2458 10.9338 76.5639 13.5677C82.882 16.2017 88.6256 20.0699 93.4666 24.9513C98.3076 29.8328 102.151 35.6319 104.778 42.0173C107.405 48.4028 108.763 55.2495 108.775 62.1664Z" fill="#D5D5D5"/>
<path opacity="0.43" d="M108.986 61.8751C109.027 72.3211 106.003 82.5441 100.3 91.2495C94.596 99.9548 86.4685 106.751 76.9464 110.776C67.4244 114.802 56.9363 115.877 46.8105 113.864C36.6848 111.851 27.3769 106.841 20.066 99.469C12.755 92.097 7.76978 82.6944 5.74177 72.452C3.71376 62.2097 4.73419 51.5885 8.67381 41.9337C12.6134 32.2789 19.295 24.0249 27.8722 18.2171C36.4494 12.4093 46.5364 9.30902 56.8556 9.30894C63.6881 9.29542 70.4565 10.6443 76.774 13.2787C83.0916 15.9131 88.8348 19.7814 93.6756 24.6626C98.5164 29.5438 102.36 35.3424 104.987 41.7274C107.614 48.1123 108.973 54.9585 108.986 61.8751Z" fill="#D3D3D3"/>
<path opacity="0.45" d="M109.198 61.5751C109.24 72.0218 106.218 82.246 100.515 90.9526C94.8121 99.6593 86.6846 106.457 77.1622 110.483C67.6399 114.51 57.1511 115.585 47.0245 113.573C36.898 111.56 27.5894 106.55 20.2779 99.1776C12.9664 91.8051 7.98102 82.4016 5.95328 72.1585C3.92553 61.9154 4.94667 51.2934 8.88733 41.6383C12.828 31.9831 19.5109 23.7292 28.0894 17.922C36.6679 12.1149 46.7561 9.01582 57.0759 9.01743C63.9074 9.00391 70.6746 10.3526 76.9912 12.9866C83.3077 15.6205 89.0499 19.4881 93.8899 24.3686C98.73 29.249 102.573 35.0467 105.2 41.4306C107.826 47.8145 109.185 54.6596 109.198 61.5751Z" fill="#D1D1D1"/>
<path opacity="0.47" d="M109.419 61.3092C109.46 71.7555 106.439 81.9794 100.736 90.6859C95.0333 99.3923 86.9063 106.19 77.3844 110.217C67.8625 114.244 57.3741 115.319 47.2478 113.307C37.1215 111.296 27.8129 106.286 20.5011 98.9148C13.1893 91.5431 8.20323 82.1404 6.17453 71.8979C4.14583 61.6553 5.16576 51.0337 9.10512 41.3784C13.0445 31.7231 19.726 23.4685 28.3034 17.6603C36.8808 11.8521 46.9682 8.75165 57.2877 8.75157C71.0852 8.72425 84.3285 14.2459 94.1047 24.1022C103.881 33.9584 109.389 47.342 109.419 61.3092Z" fill="#CFCFCF"/>
<path opacity="0.49" d="M109.63 60.9836C109.67 71.4295 106.647 81.6526 100.943 90.3579C95.2396 99.0633 87.112 105.859 77.59 109.885C68.0679 113.911 57.5798 114.985 47.454 112.972C37.3283 110.959 28.0205 105.95 20.7095 98.5775C13.3985 91.2055 8.41333 81.8029 6.38533 71.5605C4.35732 61.3182 5.37775 50.697 9.31737 41.0422C13.257 31.3874 19.9385 23.1334 28.5158 17.3255C37.093 11.5177 47.18 8.41743 57.4991 8.41735C64.332 8.40271 71.1008 9.7509 77.4189 12.3849C83.737 15.0189 89.4806 18.887 94.3216 23.7685C99.1626 28.6499 103.006 34.449 105.633 40.8345C108.26 47.2199 109.618 54.0666 109.63 60.9836Z" fill="#CDCDCD"/>
<path opacity="0.51" d="M109.842 60.6834C109.89 71.1315 106.874 81.3591 101.175 90.0702C95.4762 98.7813 87.351 105.584 77.8293 109.616C68.3075 113.648 57.8176 114.728 47.6889 112.719C37.5601 110.711 28.2484 105.703 20.9335 98.3323C13.6186 90.9612 8.62985 81.5578 6.59934 71.3138C4.56884 61.0697 5.58797 50.4461 9.52761 40.7889C13.4673 31.1318 20.1501 22.8757 28.7293 17.0671C37.3085 11.2584 47.398 8.15843 57.7193 8.16001C71.5102 8.13269 84.7475 13.6499 94.5214 23.499C104.295 33.3481 109.806 46.7229 109.842 60.6834Z" fill="#CBCBCB"/>
<path opacity="0.53" d="M110.062 60.3834C110.104 70.8297 107.082 81.0536 101.38 89.7601C95.6768 98.4665 87.5499 105.264 78.028 109.291C68.5061 113.318 58.0177 114.394 47.8914 112.382C37.7651 110.37 28.4565 105.361 21.1446 97.989C13.8328 90.6173 8.84678 81.2147 6.81808 70.9721C4.78939 60.7296 5.80931 50.1079 9.74868 40.4526C13.688 30.7973 20.3696 22.5427 28.947 16.7346C37.5244 10.9264 47.6117 7.82587 57.9312 7.82578C71.7288 7.79847 84.972 13.3202 94.7482 23.1764C104.524 33.0326 110.033 46.4162 110.062 60.3834Z" fill="#C9C9C9"/>
<path opacity="0.55" d="M110.274 60.0834C110.316 70.5301 107.294 80.7543 101.591 89.4609C95.8878 98.1676 87.7603 104.965 78.2379 108.992C68.7155 113.018 58.2267 114.094 48.1002 112.081C37.9736 110.068 28.665 105.058 21.3536 97.6859C14.0421 90.3134 9.0567 80.9099 7.02896 70.6668C5.00122 60.4237 6.02235 49.8017 9.96301 40.1466C13.9037 30.4914 20.5865 22.2375 29.1651 16.4303C37.7436 10.6232 47.8317 7.52412 58.1516 7.52574C64.983 7.51221 71.7503 8.86093 78.0668 11.4949C84.3834 14.1288 90.1256 17.9964 94.9656 22.8769C99.8056 27.7573 103.649 33.555 106.275 39.9389C108.902 46.3228 110.261 53.1679 110.274 60.0834Z" fill="#C7C7C7"/>
<path opacity="0.57" d="M110.494 59.7919C110.534 70.2379 107.511 80.461 101.807 89.1663C96.1034 97.8716 87.9758 104.668 78.4537 108.693C68.9317 112.719 58.4436 113.794 48.3178 111.781C38.1921 109.768 28.8843 104.758 21.5733 97.3859C14.2623 90.0138 9.2771 80.6112 7.2491 70.3689C5.22109 60.1265 6.24152 49.5053 10.1811 39.8505C14.1208 30.1957 20.8023 21.9417 29.3795 16.1339C37.9568 10.3261 48.0437 7.22578 58.3629 7.2257C65.1958 7.21106 71.9646 8.55925 78.2827 11.1932C84.6008 13.8272 90.3444 17.6954 95.1854 22.5769C100.026 27.4583 103.87 33.2574 106.497 39.6428C109.123 46.0283 110.482 52.875 110.494 59.7919Z" fill="#C5C5C5"/>
<path opacity="0.59" d="M110.706 59.4919C110.746 69.9378 107.723 80.1609 102.019 88.8662C96.3153 97.5715 88.1877 104.367 78.6656 108.393C69.1436 112.419 58.6555 113.493 48.5298 111.48C38.404 109.468 29.0962 104.458 21.7852 97.0858C14.4742 89.7138 9.48902 80.3111 7.46101 70.0688C5.433 59.8265 6.45343 49.2053 10.393 39.5505C14.3327 29.8957 21.0142 21.6416 29.5914 15.8338C38.1687 10.026 48.2556 6.92572 58.5748 6.92564C65.4074 6.91212 72.1757 8.26108 78.4933 10.8955C84.8109 13.5299 90.554 17.398 95.3948 22.2793C100.236 27.1605 104.079 32.9592 106.706 39.3441C109.333 45.729 110.692 52.5752 110.706 59.4919Z" fill="#C3C3C3"/>
<path opacity="0.61" d="M110.918 59.1918C110.959 69.6385 107.937 79.8627 102.234 88.5694C96.5314 97.276 88.4039 104.073 78.8815 108.1C69.3591 112.127 58.8703 113.202 48.7438 111.189C38.6172 109.177 29.3086 104.167 21.9971 96.7944C14.6857 89.4218 9.70026 80.0183 7.67251 69.7752C5.64477 59.5321 6.66591 48.9102 10.6066 39.255C14.5472 29.5999 21.2301 21.3459 29.8086 15.5388C38.3871 9.73161 48.4753 6.63252 58.7952 6.63413C65.6266 6.62061 72.3938 7.96933 78.7104 10.6033C85.027 13.2372 90.7692 17.1049 95.6092 21.9853C100.449 26.8657 104.292 32.6634 106.919 39.0473C109.545 45.4312 110.904 52.2763 110.918 59.1918Z" fill="#C1C1C1"/>
<path opacity="0.63" d="M111.138 58.8917C111.18 69.338 108.158 79.5619 102.455 88.2684C96.7526 96.9748 88.6256 103.772 79.1037 107.799C69.5818 111.826 59.0934 112.902 48.9671 110.89C38.8408 108.878 29.5322 103.869 22.2204 96.4973C14.9085 89.1256 9.92247 79.7229 7.89377 69.4804C5.86507 59.2378 6.885 48.6162 10.8244 38.9609C14.7637 29.3056 21.4453 21.051 30.0227 15.2429C38.6001 9.43466 48.6874 6.33417 59.0069 6.33409C72.8045 6.30677 86.0477 11.8285 95.8239 21.6847C105.6 31.5409 111.109 44.9245 111.138 58.8917Z" fill="#BFBFBF"/>
<path opacity="0.65" d="M111.349 58.6003C111.389 69.0462 108.366 79.2693 102.663 87.9746C96.9588 96.6799 88.8312 103.476 79.3092 107.502C69.7871 111.527 59.299 112.602 49.1733 110.589C39.0475 108.576 29.7397 103.566 22.4288 96.1942C15.1178 88.8222 10.1326 79.4195 8.10456 69.1772C6.07656 58.9348 7.09699 48.3136 11.0366 38.6588C14.9762 29.004 21.6578 20.75 30.235 14.9422C38.8122 9.13439 48.8992 6.03413 59.2184 6.03405C66.0512 6.0194 72.82 7.36754 79.1381 10.0015C85.4562 12.6355 91.1998 16.5037 96.0408 21.3852C100.882 26.2666 104.725 32.0657 107.352 38.4512C109.979 44.8366 111.337 51.6833 111.349 58.6003Z" fill="#BDBDBD"/>
<path opacity="0.67" d="M111.561 58.3002C111.601 68.7465 108.578 78.9699 102.874 87.6755C97.1698 96.381 89.0417 103.177 79.5192 107.202C69.9966 111.228 59.5081 112.302 49.3821 110.288C39.2561 108.275 29.9483 103.264 22.6377 95.8911C15.327 88.5182 10.3425 79.1148 8.31544 68.8719C6.28839 58.629 7.31003 48.0075 11.2509 38.3528C15.1919 28.6982 21.8747 20.4448 30.4531 14.638C39.0314 8.83122 49.1193 5.73237 59.4388 5.73399C66.2709 5.72047 73.0388 7.06948 79.3559 9.70397C85.673 12.3385 91.4157 16.2068 96.2558 21.0881C101.096 25.9695 104.939 31.7682 107.565 38.1531C110.191 44.538 111.549 51.384 111.561 58.3002Z" fill="#BBBBBB"/>
<path opacity="0.69" d="M111.781 58.0004C111.823 68.4467 108.801 78.6706 103.099 87.377C97.3961 96.0835 89.2691 102.881 79.7472 106.908C70.2253 110.935 59.7369 112.011 49.6106 109.999C39.4843 107.987 30.1757 102.978 22.8639 95.6059C15.5521 88.2342 10.566 78.8316 8.53732 68.589C6.50862 58.3465 7.52855 47.7248 11.4679 38.0695C15.4073 28.4142 22.0888 20.1597 30.6662 14.3515C39.2436 8.54331 49.331 5.44281 59.6505 5.44273C73.448 5.41542 86.6913 10.9371 96.4675 20.7933C106.244 30.6496 111.752 44.0331 111.781 58.0004Z" fill="#B9B9B9"/>
<path opacity="0.71" d="M111.993 57.7003C112.035 68.147 109.013 78.3713 103.31 87.0779C97.6066 95.7846 89.4791 102.582 79.9567 106.609C70.4343 110.635 59.9455 111.711 49.8189 109.698C39.6924 107.685 30.3838 102.675 23.0723 95.3028C15.7608 87.9303 10.7755 78.5269 8.74771 68.2837C6.71997 58.0406 7.7411 47.4187 11.6818 37.7636C15.6224 28.1084 22.3053 19.8545 30.8838 14.0473C39.4623 8.24016 49.5505 5.14107 59.8704 5.14268C66.7018 5.12916 73.469 6.47787 79.7856 9.11183C86.1021 11.7458 91.8444 15.6134 96.6844 20.4939C101.524 25.3743 105.367 31.172 107.994 37.5559C110.621 43.9398 111.979 50.7848 111.993 57.7003Z" fill="#B7B7B7"/>
<path opacity="0.73" d="M112.255 57.4089C112.296 67.8548 109.272 78.0779 103.569 86.7832C97.8651 95.4886 89.7375 102.284 80.2155 106.31C70.6934 110.336 60.2053 111.41 50.0796 109.397C39.9538 107.385 30.646 102.375 23.335 95.0028C16.024 87.6308 11.0388 78.2281 9.01081 67.9858C6.98281 57.7435 8.00324 47.1223 11.9429 37.4675C15.8825 27.8127 22.5641 19.5586 31.1413 13.7508C39.7185 7.94298 49.8055 4.84273 60.1246 4.84265C66.9575 4.828 73.7263 6.17619 80.0444 8.81017C86.3625 11.4442 92.1061 15.3123 96.9471 20.1938C101.788 25.0752 105.632 30.8743 108.258 37.2598C110.885 43.6452 112.243 50.4919 112.255 57.4089Z" fill="#B5B5B5"/>
<path opacity="0.75" d="M112.425 57.1087C112.465 67.5547 109.442 77.7778 103.738 86.4831C98.0345 95.1884 89.9069 101.984 80.3849 106.01C70.8628 110.036 60.3747 111.11 50.249 109.097C40.1232 107.084 30.8154 102.075 23.5044 94.7027C16.1935 87.3307 11.2083 77.928 9.18025 67.6857C7.15224 57.4434 8.17267 46.8222 12.1123 37.1674C16.0519 27.5125 22.7335 19.2585 31.3107 13.4507C39.8879 7.64292 49.9749 4.54266 60.2941 4.54258C67.1266 4.52906 73.8949 5.87797 80.2125 8.51236C86.5301 11.1467 92.2732 15.015 97.114 19.8962C101.955 24.7774 105.798 30.5761 108.426 36.961C111.053 43.3459 112.412 50.1921 112.425 57.1087Z" fill="#B3B3B3"/>
<path opacity="0.76" d="M112.636 56.8087C112.678 67.2554 109.656 77.4796 103.953 86.1863C98.2501 94.8929 90.1226 101.69 80.6002 105.717C71.0778 109.744 60.5891 110.819 50.4625 108.806C40.336 106.794 31.0274 101.784 23.7159 94.4112C16.4044 87.0387 11.419 77.6353 9.39126 67.3921C7.36352 57.149 8.38466 46.5271 12.3253 36.8719C16.266 27.2168 22.9489 18.9628 31.5274 13.1557C40.1059 7.3485 50.194 4.24947 60.5139 4.25108C67.3454 4.23756 74.1126 5.58627 80.4291 8.22023C86.7457 10.8542 92.4879 14.7218 97.3279 19.6022C102.168 24.4826 106.011 30.2803 108.638 36.6642C111.264 43.0481 112.623 49.8932 112.636 56.8087Z" fill="#B1B1B1"/>
<path opacity="0.78" d="M112.856 56.5087C112.898 66.955 109.877 77.1789 104.174 85.8853C98.4713 94.5918 90.3443 101.389 80.8224 105.416C71.3005 109.443 60.8121 110.519 50.6858 108.507C40.5595 106.495 31.2509 101.486 23.9391 94.1142C16.6273 86.7425 11.6412 77.3399 9.61252 67.0973C7.58382 56.8548 8.60375 46.2331 12.5431 36.5778C16.4825 26.9225 23.164 18.668 31.7414 12.8598C40.3188 7.05161 50.4062 3.95111 60.7257 3.95103C74.5232 3.92372 87.7665 9.4454 97.5427 19.3016C107.319 29.1579 112.827 42.5414 112.856 56.5087Z" fill="#AFAFAF"/>
<path opacity="0.8" d="M113.102 56.2172C113.142 66.6632 110.119 76.8863 104.415 85.5916C98.7118 94.2969 90.5842 101.093 81.0621 105.119C71.5401 109.144 61.052 110.219 50.9262 108.206C40.8005 106.193 31.4927 101.183 24.1817 93.8112C16.8707 86.4391 11.8855 77.0365 9.85749 66.7942C7.82949 56.5518 8.84992 45.9306 12.7895 36.2758C16.7292 26.621 23.4107 18.367 31.988 12.5592C40.5652 6.75138 50.6522 3.65108 60.9713 3.651C67.8042 3.63635 74.573 4.98454 80.8911 7.61852C87.2092 10.2525 92.9528 14.1207 97.7938 19.0021C102.635 23.8836 106.478 29.6827 109.105 36.0681C111.732 42.4536 113.09 49.3003 113.102 56.2172Z" fill="#ADADAD"/>
<path opacity="0.82" d="M113.28 55.9171C113.32 66.3635 110.297 76.5869 104.593 85.2924C98.8886 93.9979 90.7605 100.794 81.2379 104.819C71.7154 108.845 61.2268 109.919 51.1009 107.905C40.9749 105.892 31.6671 100.881 24.3564 93.5081C17.0458 86.1352 12.0612 76.7317 10.0342 66.4888C8.00714 56.2459 9.02878 45.6244 12.9697 35.9698C16.9106 26.3151 23.5935 18.0617 32.1718 12.2549C40.7502 6.44816 50.838 3.34931 61.1575 3.35093C67.9897 3.33741 74.7576 4.68638 81.0747 7.32086C87.3918 9.95535 93.1344 13.8238 97.9745 18.7051C102.815 23.5864 106.658 29.3851 109.284 35.77C111.91 42.1549 113.268 49.0009 113.28 55.9171Z" fill="#ABABAB"/>
<path opacity="0.84" d="M113.5 55.6171C113.542 66.0634 110.52 76.2873 104.818 84.9937C99.1148 93.7002 90.9878 100.497 81.4659 104.525C71.944 108.552 61.4557 109.627 51.3294 107.615C41.2031 105.603 31.8945 100.594 24.5826 93.2226C17.2708 85.8509 12.2848 76.4483 10.2561 66.2058C8.22737 55.9632 9.2473 45.3415 13.1867 35.6862C17.126 26.0309 23.8076 17.7764 32.385 11.9682C40.9624 6.16001 51.0497 3.05951 61.3692 3.05943C75.1668 3.03212 88.41 8.5538 98.1862 18.41C107.962 28.2663 113.471 41.6498 113.5 55.6171Z" fill="#A9A9A9"/>
<path opacity="0.86" d="M113.712 55.3085C113.754 65.7552 110.732 75.9794 105.029 84.686C99.3258 93.3927 91.1983 100.19 81.6759 104.217C72.1535 108.244 61.6647 109.319 51.5382 107.306C41.4116 105.293 32.103 100.284 24.7915 92.911C17.4801 85.5385 12.4947 76.135 10.4669 65.8919C8.4392 55.6488 9.46034 45.0268 13.401 35.3717C17.3417 25.7165 24.0245 17.4626 32.603 11.6554C41.1816 5.84826 51.2697 2.74922 61.5896 2.75083C68.4211 2.73731 75.1883 4.08603 81.5048 6.71998C87.8214 9.35393 93.5636 13.2215 98.4036 18.102C103.244 22.9824 107.087 28.7801 109.713 35.164C112.34 41.5479 113.699 48.393 113.712 55.3085Z" fill="#A7A7A7"/>
<path opacity="0.88" d="M113.949 55.0256C113.989 65.4715 110.966 75.6946 105.262 84.3999C99.5584 93.1053 91.4309 99.9012 81.9088 103.927C72.3868 107.953 61.8987 109.027 51.7729 107.014C41.6472 105.001 32.3393 99.9915 25.0284 92.6195C17.7174 85.2475 12.7322 75.8448 10.7042 65.6025C8.67617 55.3602 9.6966 44.739 13.6362 35.0842C17.5758 25.4294 24.2574 17.1753 32.8346 11.3675C41.4119 5.55973 51.4988 2.45943 61.818 2.45935C68.6509 2.4447 75.4197 3.79289 81.7378 6.42687C88.0558 9.06086 93.7995 12.929 98.6405 17.8105C103.481 22.6919 107.325 28.491 109.952 34.8765C112.578 41.2619 113.937 48.1086 113.949 55.0256Z" fill="#A5A5A5"/>
<path opacity="0.9" d="M114.144 54.7255C114.184 65.1715 111.161 75.3945 105.457 84.0999C99.7533 92.8052 91.6257 99.6011 82.1036 103.627C72.5816 107.653 62.0935 108.727 51.9677 106.714C41.842 104.701 32.5342 99.6915 25.2232 92.3194C17.9122 84.9474 12.927 75.5448 10.899 65.3024C8.87099 55.0601 9.89142 44.4389 13.831 34.7841C17.7707 25.1293 24.4522 16.8752 33.0294 11.0674C41.6067 5.25962 51.6937 2.15936 62.0128 2.15928C68.8454 2.14576 75.6137 3.49467 81.9313 6.12906C88.2489 8.76344 93.992 12.6317 98.8328 17.5129C103.674 22.3941 107.517 28.1928 110.144 34.5777C112.771 40.9626 114.13 47.8089 114.144 54.7255Z" fill="#A3A3A3"/>
<path opacity="0.92" d="M114.356 54.4513C114.397 64.898 111.375 75.1222 105.672 83.8288C99.9694 92.5355 91.8419 99.3327 82.3195 103.36C72.7971 107.386 62.3083 108.462 52.1818 106.449C42.0552 104.436 32.7466 99.4264 25.4351 92.0538C18.1236 84.6813 13.1382 75.2778 11.1105 65.0347C9.08276 54.7916 10.1039 44.1697 14.0446 34.5145C17.9852 24.8593 24.6681 16.6054 33.2466 10.7982C41.8251 4.99108 51.9133 1.89204 62.2332 1.89366C69.0646 1.88013 75.8318 3.22885 82.1484 5.8628C88.465 8.49676 94.2072 12.3644 99.0472 17.2448C103.887 22.1252 107.73 27.9229 110.357 34.3068C112.983 40.6907 114.342 47.5358 114.356 54.4513Z" fill="#A1A1A1"/>
<path opacity="0.94" d="M114.576 54.1256C114.618 64.5719 111.596 74.7958 105.893 83.5023C100.191 92.2087 92.0635 99.006 82.5416 103.033C73.0198 107.06 62.5314 108.136 52.4051 106.124C42.2788 104.112 32.9702 99.1029 25.6583 91.7312C18.3465 84.3595 13.3605 74.9568 11.3318 64.7143C9.30306 54.4717 10.323 43.8501 14.2623 34.1948C18.2017 24.5395 24.8833 16.2849 33.4607 10.4767C42.0381 4.66855 52.1254 1.56806 62.4449 1.56797C76.2424 1.54066 89.4857 7.06235 99.2619 16.9186C109.038 26.7748 114.547 40.1584 114.576 54.1256Z" fill="#9F9F9F"/>
<path opacity="0.96" d="M114.796 53.8341C114.843 64.2811 111.826 74.5071 106.126 83.2168C100.427 91.9264 92.3023 98.7277 82.7814 102.759C73.2604 106.79 62.7717 107.87 52.644 105.862C42.5163 103.853 33.2053 98.8473 25.8906 91.4775C18.5759 84.1077 13.5866 74.7059 11.5549 64.4632C9.52318 54.2206 10.5404 43.5979 14.4777 33.9409C18.415 24.284 25.0952 16.0273 33.672 10.2169C42.2488 4.40655 52.3363 1.30394 62.6565 1.30214C76.4518 1.27027 89.6947 6.78668 99.4725 16.6381C109.25 26.4895 114.762 39.8691 114.796 53.8341Z" fill="#9D9D9D"/>
<path opacity="0.98" d="M114.999 53.5341C115.039 63.9804 112.016 74.2038 106.312 82.9093C100.608 91.6149 92.4797 98.4108 82.9572 102.436C73.4346 106.462 62.9461 107.536 52.8201 105.522C42.6941 103.509 33.3863 98.4979 26.0757 91.125C18.765 83.7521 13.7805 74.3486 11.7534 64.1058C9.72637 53.8629 10.748 43.2414 14.6889 33.5867C18.6299 23.9321 25.3127 15.6787 33.8911 9.87188C42.4694 4.06511 52.5572 0.966257 62.8767 0.967874C69.7089 0.954353 76.4768 2.30337 82.7939 4.93786C89.1111 7.57235 94.8536 11.4407 99.6938 16.322C104.534 21.2034 108.377 27.0021 111.003 33.387C113.629 39.7719 114.987 46.6179 114.999 53.5341Z" fill="#9B9B9B"/>
<path d="M115.219 53.234C115.261 63.6803 112.239 73.9042 106.537 82.6107C100.834 91.3171 92.7071 98.1144 83.1852 102.141C73.6633 106.169 63.1749 107.244 53.0486 105.232C42.9223 103.22 33.6137 98.2113 26.3019 90.8396C18.9901 83.4679 14.004 74.0652 11.9753 63.8227C9.94661 53.5801 10.9665 42.9585 14.9059 33.3032C18.8453 23.6479 25.5268 15.3933 34.1042 9.58514C42.6816 3.77695 52.7689 0.676457 63.0885 0.67637C76.886 0.649059 90.1293 6.17074 99.9055 16.027C109.682 25.8832 115.19 39.2668 115.219 53.234Z" fill="#999999"/>
</g>
<path d="M115.219 53.234C115.261 63.6803 112.239 73.9042 106.537 82.6107C100.834 91.3171 92.7071 98.1144 83.1852 102.141C73.6633 106.169 63.1749 107.244 53.0486 105.232C42.9223 103.22 33.6137 98.2113 26.3019 90.8396C18.9901 83.4679 14.004 74.0652 11.9753 63.8227C9.94661 53.5801 10.9665 42.9585 14.9059 33.3032C18.8453 23.6479 25.5268 15.3933 34.1042 9.58514C42.6816 3.77695 52.7689 0.676457 63.0885 0.67637C76.886 0.649059 90.1293 6.17074 99.9055 16.027C109.682 25.8832 115.19 39.2668 115.219 53.234Z" fill="url(#paint0_radial_183_674)"/>
<path d="M63.0883 91.6043C55.5978 91.5755 48.2836 89.3006 42.0693 85.0669C35.8549 80.8333 31.0191 74.8307 28.1723 67.8169C25.3255 60.8032 24.5953 53.0929 26.0741 45.6594C27.5528 38.2259 31.1742 31.4026 36.4809 26.051C41.7875 20.6994 48.5416 17.0595 55.8903 15.5907C63.239 14.122 70.8529 14.8903 77.7706 17.7987C84.6883 20.707 90.5996 25.6251 94.7582 31.9318C98.9169 38.2386 101.136 45.6513 101.136 53.234C101.105 63.4259 97.0817 73.1891 89.949 80.3822C82.8162 87.5754 73.1564 91.6111 63.0883 91.6043Z" fill="url(#paint1_radial_183_674)"/>
<path d="M63.0885 91.6042C55.642 91.6445 48.3492 89.46 42.1234 85.3243C35.8975 81.1886 31.0153 75.2855 28.088 68.3542C25.1608 61.4229 24.3186 53.7713 25.6669 46.3578C27.0153 38.9442 30.4942 32.098 35.6681 26.6765C31.9692 30.2055 29.0083 34.4508 26.9612 39.1603C24.9141 43.8699 23.8225 48.9478 23.7513 54.0926C23.68 59.2374 24.6305 64.3443 26.5464 69.1101C28.4623 73.876 31.3045 78.2036 34.9042 81.8361C38.504 85.4687 42.788 88.3321 47.5019 90.2565C52.2159 92.1808 57.2637 93.1269 62.3458 93.0385C67.4278 92.9502 72.4406 91.8292 77.0864 89.742C81.7323 87.6549 85.9166 84.6442 89.391 80.8887C82.3176 87.7621 72.8934 91.6015 63.0885 91.6042Z" fill="white"/>
<g style="mix-blend-mode:multiply">
<path d="M63.0883 14.8723C57.968 14.8686 52.8997 15.9123 48.1877 17.9407C43.4758 19.9692 39.2173 22.9406 35.668 26.6765C42.8428 19.8314 52.3677 16.0819 62.2258 16.2218C72.0839 16.3617 81.5012 20.3801 88.4837 27.4261C95.4661 34.4721 99.4654 43.9925 99.6347 53.9714C99.804 63.9502 96.1301 73.6041 89.3909 80.8887C94.8672 75.5914 98.6473 68.7525 100.242 61.2566C101.837 53.7608 101.173 45.953 98.3363 38.8433C95.4996 31.7337 90.6206 25.6492 84.3306 21.3772C78.0406 17.1052 70.6289 14.8422 63.0544 14.8809L63.0883 14.8723Z" fill="#E6E7E8"/>
</g>
<path d="M62.2924 2.80237C70.4324 2.77126 78.4657 4.6778 85.7439 8.36812C93.0221 12.0584 99.3412 17.4292 104.191 24.0469C109.042 30.6646 112.287 38.3439 113.666 46.4651C115.045 54.5863 114.518 62.9218 112.128 70.799C114.505 64.1624 115.542 57.1103 115.178 50.0606C114.813 43.0109 113.055 36.107 110.007 29.7577C106.958 23.4085 102.682 17.7431 97.4318 13.0973C92.1813 8.45147 86.063 4.91966 79.4395 2.71106C72.816 0.502472 65.822 -0.337933 58.8718 0.239581C51.9216 0.817095 45.1565 2.80078 38.9774 6.07317C32.7984 9.34557 27.3309 13.8401 22.899 19.2904C18.4672 24.7408 15.1609 31.0362 13.1763 37.8037C16.7974 27.5539 23.461 18.6885 32.2541 12.4224C41.0471 6.1563 51.5391 2.79612 62.2924 2.80237Z" fill="white"/>
</g>
<g style="mix-blend-mode:multiply">
<path d="M63.5116 87.6608C57.0957 87.7543 50.7604 86.2063 45.0931 83.1603C39.7687 80.3033 35.3352 76.0022 32.289 70.7389C29.2797 65.327 27.6989 59.2214 27.6989 53.0111C27.6989 46.8007 29.2797 40.6952 32.289 35.2833C35.3426 30.0345 39.7751 25.7464 45.0931 22.8961C50.765 19.8679 57.1001 18.3377 63.5116 18.447C69.1297 18.3782 74.6952 19.5483 79.8216 21.8759L87.2398 5.20254C79.8248 1.68112 71.7183 -0.0949227 63.5285 0.00763926C54.1115 -0.152698 44.8204 2.21344 36.5993 6.86559C28.7601 11.3402 22.2883 17.9124 17.8929 25.8622C13.4465 34.2065 11.1187 43.5387 11.1187 53.0196C11.1187 62.5005 13.4465 71.8328 17.8929 80.1771C22.2997 88.1415 28.7975 94.7162 36.6671 99.1736C44.8697 103.81 54.1349 106.176 63.5285 106.032C71.722 106.125 79.8295 104.334 87.2398 100.794L79.8385 84.1547C74.7142 86.5156 69.1414 87.7123 63.5116 87.6608Z" fill="#1D1D1B"/>
<path d="M402.845 27.225H109.842C109.605 26.7793 109.368 26.3678 109.122 25.8878C104.727 17.938 98.2549 11.3659 90.4156 6.89125C89.3655 6.27975 88.2985 5.70825 87.2146 5.17676L79.8218 21.8759C80.5331 22.2102 81.236 22.5616 81.9219 22.9388C87.2441 25.7864 91.6799 30.075 94.7344 35.326C97.7437 40.7379 99.3246 46.8435 99.3246 53.0538C99.3246 59.2642 97.7437 65.3697 94.7344 70.7816C91.6824 76.0347 87.2459 80.3239 81.9219 83.1688C81.236 83.546 80.5331 83.8975 79.8218 84.2318L87.2231 100.871C88.2816 100.357 89.3317 99.7994 90.3648 99.2079C97.8866 94.9371 104.157 88.7258 108.538 81.2057H402.845C413.93 81.2057 423 72.3418 423 61.4891V46.916C423.042 36.089 413.93 27.225 402.845 27.225Z" fill="#E5007E"/>
</g>
<defs>
<radialGradient id="paint0_radial_183_674" cx="0" cy="0" r="1" gradientUnits="userSpaceOnUse" gradientTransform="translate(93.9747 12.4108) scale(100.408 100.584)">
<stop stop-color="#DBDADA"/>
<stop offset="0.2" stop-color="#E4E3E3"/>
<stop offset="0.59" stop-color="#EEEEEE"/>
<stop offset="1" stop-color="#F2F2F2"/>
</radialGradient>
<radialGradient id="paint1_radial_183_674" cx="0" cy="0" r="1" gradientUnits="userSpaceOnUse" gradientTransform="translate(34.6124 115.927) scale(125.155 125.374)">
<stop stop-color="white"/>
<stop offset="0.27" stop-color="#FAFAFA"/>
<stop offset="0.59" stop-color="#EBEBEB"/>
<stop offset="0.84" stop-color="#DBDADA"/>
<stop offset="1" stop-color="#B3B2B3"/>
</radialGradient>
</defs>
</svg>
