<svg width="398" height="397" viewBox="0 0 398 397" fill="none" xmlns="http://www.w3.org/2000/svg">
<path d="M199.362 327.891C175.083 328.247 151.109 322.455 129.667 311.055C109.532 300.405 92.7451 284.375 81.1751 264.749C69.7976 244.495 63.8215 221.654 63.8215 198.421C63.8215 175.189 69.7976 152.348 81.1751 132.094C92.7451 112.468 109.532 96.4376 129.667 85.7878C151.106 74.3755 175.08 68.5721 199.362 68.9172C220.626 68.6708 241.688 73.0663 261.08 81.7976L289.07 19.4257C260.984 6.24423 230.277 -0.397429 199.257 -5.08651e-05C163.608 -0.559278 128.445 8.32853 97.3392 25.7609C67.6717 42.5054 43.175 67.0845 26.525 96.8132C9.713 128.034 0.912109 162.941 0.912109 198.404C0.912109 233.867 9.713 268.774 26.525 299.995C43.2083 329.782 67.8011 354.372 97.5841 371.047C128.618 388.441 163.688 397.338 199.257 396.843C230.302 397.224 261.027 390.533 289.104 377.277L261.115 315.045C241.71 323.771 220.635 328.155 199.362 327.891Z" fill="#1D1D1B"/>
<path d="M372.235 299.995C389.047 268.774 397.847 233.867 397.847 198.404C397.847 162.942 389.047 128.034 372.235 96.8133C355.585 67.0846 331.088 42.5055 301.42 25.761C297.467 23.5209 293.408 21.3858 289.315 19.4258L261.325 81.7978C264.007 83.0345 266.666 84.3646 269.302 85.7879C289.37 96.522 306.071 112.612 317.549 132.269C328.927 152.523 334.903 175.364 334.903 198.597C334.903 221.829 328.927 244.671 317.549 264.924C305.979 284.55 289.193 300.581 269.057 311.23C266.445 312.63 263.786 313.96 261.08 315.22L289.07 377.453C293.093 375.527 297.082 373.462 300.966 371.222C330.854 354.536 355.526 329.879 372.235 299.995Z" fill="#E5007E"/>
</svg>
