<svg width="1489" height="878" viewBox="0 0 1489 878" fill="none" xmlns="http://www.w3.org/2000/svg">
<rect width="1489" height="878" rx="54" fill="white"/>
<g opacity="0.1">
<mask id="mask0_224_4500" style="mask-type:alpha" maskUnits="userSpaceOnUse" x="0" y="0" width="1489" height="878">
<rect width="1489" height="878" rx="54" fill="white"/>
</mask>
<g mask="url(#mask0_224_4500)">
<g clip-path="url(#clip0_224_4500)">
<path d="M526.63 423.717C526.448 411.34 529.409 399.118 535.237 388.188C540.706 377.911 548.933 369.352 559 363.467C569.354 357.667 581.031 354.62 592.908 354.62C604.785 354.62 616.463 357.667 626.817 363.467C636.851 369.365 645.046 377.923 650.49 388.188C656.318 399.118 659.279 411.34 659.097 423.717H694.347C694.636 405.535 690.086 387.602 681.16 371.743C672.598 356.624 660.033 344.142 644.836 335.66C628.89 327.091 611.059 322.605 592.944 322.605C574.829 322.605 556.998 327.091 541.053 335.66C525.821 344.16 513.248 356.698 504.729 371.885C495.835 387.705 491.286 405.584 491.541 423.717H526.63Z" fill="#1D1D1B"/>
<path d="M222.296 625.908C222.116 613.531 225.077 601.31 230.902 590.379C236.347 580.114 244.542 571.556 254.576 565.658C264.93 559.858 276.607 556.811 288.484 556.811C300.361 556.811 312.039 559.858 322.393 565.658C332.431 571.566 340.627 580.137 346.066 590.414C351.886 601.335 354.846 613.544 354.673 625.908H389.923C390.209 607.735 385.665 589.809 376.753 573.952C368.186 558.827 355.615 546.339 340.411 537.852C324.562 529.041 306.666 524.538 288.52 524.796C270.374 524.538 252.478 529.041 236.628 537.852C221.362 546.377 208.764 558.953 200.233 574.184C191.354 589.971 186.806 607.811 187.045 625.908H222.296Z" fill="#1D1D1B"/>
<path d="M1236.76 625.908C1236.58 613.531 1239.54 601.31 1245.36 590.379C1250.81 580.109 1259.01 571.551 1269.05 565.658C1279.41 559.858 1291.08 556.811 1302.95 556.811C1314.83 556.811 1326.5 559.858 1336.85 565.658C1346.89 571.556 1355.08 580.114 1360.53 590.379C1366.36 601.308 1369.33 613.53 1369.15 625.908H1404.4C1404.68 607.733 1400.13 589.807 1391.21 573.952C1382.65 558.831 1370.08 546.345 1354.89 537.851C1338.94 529.296 1321.11 524.818 1303 524.818C1284.89 524.818 1267.06 529.296 1251.11 537.851C1235.84 546.381 1223.24 558.955 1214.69 574.183C1205.82 589.974 1201.28 607.812 1201.51 625.908H1236.76Z" fill="#1D1D1B"/>
<path d="M1236.76 727.073C1236.58 714.691 1239.54 702.464 1245.36 691.526C1250.8 681.256 1259.01 672.701 1269.06 666.823C1279.41 661.023 1291.08 657.976 1302.95 657.976C1314.83 657.976 1326.5 661.023 1336.85 666.823C1346.89 672.71 1355.09 681.263 1360.53 691.526C1366.36 702.462 1369.33 714.689 1369.15 727.073H1404.4C1404.69 708.892 1400.14 690.96 1391.22 675.099C1382.65 659.981 1370.09 647.498 1354.89 639.017C1338.94 630.451 1321.11 625.967 1303 625.967C1284.89 625.967 1267.05 630.451 1251.11 639.017C1235.88 647.522 1223.31 660.059 1214.78 675.242C1205.9 691.065 1201.35 708.942 1201.6 727.073H1236.76Z" fill="#1D1D1B"/>
<path d="M1236.76 120.363C1236.58 107.986 1239.54 95.7642 1245.36 84.8337C1250.81 74.5643 1259.01 66.0056 1269.06 60.1129C1279.41 54.3127 1291.08 51.266 1302.95 51.266C1314.83 51.266 1326.5 54.3127 1336.85 60.1129C1346.89 66.0112 1355.08 74.5689 1360.53 84.8337C1366.36 95.7625 1369.33 107.985 1369.15 120.363H1404.4C1404.68 102.188 1400.13 84.2622 1391.22 68.4067C1382.65 53.2826 1370.09 40.7945 1354.89 32.3065C1338.94 23.7515 1321.11 19.2734 1303 19.2734C1284.89 19.2734 1267.06 23.7515 1251.11 32.3065C1235.88 40.8114 1223.31 53.3486 1214.78 68.5315C1205.9 84.3556 1201.35 102.232 1201.6 120.363H1236.76Z" fill="#1D1D1B"/>
<path d="M425.173 120.362C424.98 107.988 427.929 95.7661 433.744 84.8323C439.175 74.5575 447.373 65.9964 457.418 60.1115C467.772 54.3115 479.449 51.2649 491.326 51.2649C503.203 51.2649 514.88 54.3115 525.235 60.1115C535.268 66.0098 543.463 74.5675 548.908 84.8323C554.736 95.7628 557.697 107.985 557.515 120.362H592.765C593.047 102.186 588.497 84.2602 579.578 68.4053C571.022 53.2773 558.456 40.7879 543.253 32.3051C527.293 23.7346 509.447 19.248 491.317 19.248C473.188 19.248 455.342 23.7346 439.381 32.3051C424.153 40.81 411.582 53.3472 403.057 68.5302C394.174 84.3543 389.625 102.23 389.869 120.362H425.173Z" fill="#1D1D1B"/>
<path d="M526.63 19.2489C526.463 6.90196 529.424 -5.28745 535.237 -16.1914C540.688 -26.5041 548.917 -35.0963 559 -41.0013C569.354 -46.8014 581.031 -49.848 592.908 -49.848C604.785 -49.848 616.463 -46.8014 626.817 -41.0013C636.833 -35.0703 644.998 -26.4806 650.401 -16.1914C656.229 -5.26089 659.189 6.96104 659.007 19.3381H694.258C694.541 1.15681 689.991 -16.7751 681.07 -32.6362C672.509 -47.7549 659.943 -60.237 644.746 -68.7186C628.801 -77.2875 610.97 -81.7734 592.855 -81.7734C574.74 -81.7734 556.908 -77.2875 540.963 -68.7186C525.73 -60.214 513.153 -47.6772 504.621 -32.4935C495.741 -16.669 491.199 1.20783 491.451 19.3381L526.63 19.2489Z" fill="#1D1D1B"/>
<path d="M729.508 221.475C729.332 209.096 732.299 196.874 738.133 185.946C743.564 175.671 751.762 167.11 761.806 161.225C772.16 155.425 783.838 152.378 795.715 152.378C807.592 152.378 819.269 155.425 829.623 161.225C839.657 167.123 847.852 175.681 853.296 185.946C859.124 196.876 862.085 209.098 861.903 221.475H897.189C897.47 203.3 892.92 185.374 884.002 169.519C875.447 154.391 862.88 141.901 847.678 133.418C831.717 124.848 813.871 120.361 795.742 120.361C777.612 120.361 759.766 124.848 743.805 133.418C728.59 141.936 716.032 154.478 707.517 169.661C698.631 185.478 694.083 203.349 694.329 221.475H729.508Z" fill="#1D1D1B"/>
<path d="M729.508 524.831C729.332 512.453 732.299 500.231 738.133 489.302C743.564 479.027 751.762 470.466 761.806 464.581C772.16 458.781 783.838 455.735 795.715 455.735C807.592 455.735 819.269 458.781 829.623 464.581C839.657 470.479 847.852 479.037 853.296 489.302C859.124 500.232 862.085 512.454 861.903 524.831H897.189C897.47 506.656 892.92 488.731 884.002 472.875C875.427 457.769 862.848 445.304 847.642 436.846C831.681 428.276 813.835 423.789 795.706 423.789C777.576 423.789 759.73 428.276 743.769 436.846C728.573 445.344 716.027 457.862 707.517 473.018C698.631 488.834 694.083 506.705 694.329 524.831H729.508Z" fill="#1D1D1B"/>
<path d="M628.069 828.187C627.887 815.81 630.848 803.588 636.676 792.658C642.122 782.388 650.325 773.83 660.367 767.937C670.718 762.137 682.393 759.09 694.267 759.09C706.141 759.09 717.816 762.137 728.166 767.937C738.209 773.83 746.411 782.388 751.858 792.658C757.678 803.591 760.638 815.811 760.464 828.187H795.715C795.995 810.012 791.445 792.086 782.527 776.231C773.983 761.076 761.415 748.561 746.203 740.059C730.242 731.489 712.396 727.002 694.267 727.002C676.137 727.002 658.291 731.489 642.331 740.059C627.103 748.564 614.531 761.101 606.006 776.284C597.123 792.108 592.575 809.984 592.819 828.116L628.069 828.187Z" fill="#1D1D1B"/>
<path d="M932.44 120.362C932.258 107.985 935.219 95.7628 941.047 84.8323C946.492 74.5675 954.687 66.0098 964.72 60.1115C975.075 54.3115 986.752 51.2649 998.629 51.2649C1010.51 51.2649 1022.18 54.3115 1032.54 60.1115C1042.57 66.0098 1050.77 74.5675 1056.21 84.8323C1062.04 95.7612 1065.01 107.983 1064.84 120.362H1100.09C1100.36 102.183 1095.79 84.2574 1086.86 68.4053C1078.3 53.2812 1065.74 40.7931 1050.54 32.3051C1034.58 23.7346 1016.73 19.248 998.602 19.248C980.473 19.248 962.627 23.7346 946.666 32.3051C931.438 40.81 918.867 53.3472 910.342 68.5302C901.471 84.3577 896.935 102.234 897.19 120.362H932.44Z" fill="#1D1D1B"/>
<path d="M425.174 524.831C424.981 512.457 427.929 500.236 433.745 489.302C439.175 479.027 447.374 470.466 457.418 464.581C467.769 458.781 479.443 455.734 491.317 455.734C503.192 455.734 514.866 458.781 525.217 464.581C535.26 470.474 543.462 479.033 548.908 489.302C554.736 500.232 557.697 512.454 557.515 524.831C557.667 535.686 555.438 546.442 550.984 556.348L582.87 570.617C589.623 556.303 593.025 540.647 592.819 524.831C593.099 506.656 588.55 488.731 579.631 472.875C571.066 457.773 558.5 445.309 543.307 436.846C527.346 428.276 509.501 423.789 491.371 423.789C473.242 423.789 455.396 428.276 439.435 436.846C424.202 445.353 411.63 457.897 403.111 473.089C394.225 488.906 389.676 506.777 389.923 524.903C389.743 540.712 393.169 556.356 399.944 570.652L431.758 556.383C427.28 546.471 425.033 535.702 425.174 524.831Z" fill="#1D1D1B"/>
<path d="M439.435 612.887C455.395 621.457 473.241 625.944 491.371 625.944C509.5 625.944 527.346 621.457 543.307 612.887C558.509 604.404 571.076 591.915 579.631 576.787C580.794 574.771 581.868 572.702 582.87 570.615L550.983 556.346C550.357 557.738 549.677 559.075 548.962 560.413C543.515 570.682 535.313 579.241 525.27 585.134C514.92 590.934 503.245 593.981 491.371 593.981C479.497 593.981 467.822 590.934 457.471 585.134C447.4 579.242 439.182 570.661 433.744 560.36C433.011 559.022 432.331 557.684 431.705 556.293L399.89 570.562C400.874 572.613 401.93 574.646 403.057 576.644C411.594 591.841 424.185 604.385 439.435 612.887Z" fill="#E6007E"/>
<path d="M222.296 221.475C222.116 209.098 225.076 196.877 230.902 185.946C236.347 175.681 244.542 167.123 254.576 161.225C264.93 155.425 276.607 152.378 288.484 152.378C300.361 152.378 312.038 155.425 322.393 161.225C332.426 167.123 340.621 175.681 346.066 185.946C351.892 196.877 354.852 209.098 354.673 221.475C354.806 232.32 352.565 243.063 348.106 252.956L379.992 267.225C386.731 252.907 390.126 237.253 389.923 221.439C390.209 203.266 385.665 185.34 376.753 169.483C368.191 154.354 355.618 141.865 340.411 133.383C324.561 124.572 306.666 120.069 288.52 120.327C270.374 120.069 252.478 124.572 236.628 133.383C221.396 141.89 208.823 154.434 200.304 169.626C191.411 185.439 186.861 203.312 187.117 221.439C186.93 237.248 190.35 252.892 197.119 267.189L228.934 252.92C224.455 243.044 222.19 232.313 222.296 221.475Z" fill="#1D1D1B"/>
<path d="M236.557 309.532C252.502 318.101 270.333 322.587 288.448 322.587C306.563 322.587 324.394 318.101 340.34 309.532C355.546 301.057 368.119 288.573 376.682 273.449C377.827 271.416 378.918 269.347 379.92 267.26L348.034 252.992C347.39 254.365 346.728 255.72 345.994 257.04C340.566 267.27 332.395 275.797 322.392 281.672C312.038 287.472 300.361 290.519 288.484 290.519C276.607 290.519 264.929 287.472 254.575 281.672C244.534 275.783 236.337 267.223 230.902 256.951C230.168 255.631 229.506 254.276 228.862 252.902L197.047 267.171C198.032 269.222 199.087 271.256 200.232 273.253C208.744 288.46 221.318 301.018 236.557 309.532Z" fill="#E6007E"/>
<path d="M19.3993 828.186C19.2174 815.809 22.1781 803.587 28.0062 792.657C33.4524 782.388 41.6547 773.829 51.6973 767.936C61.9708 761.948 73.6878 758.864 85.5879 759.018C97.494 758.862 109.217 761.945 119.496 767.936C129.539 773.829 137.741 782.388 143.188 792.657C149.008 803.59 151.968 815.81 151.794 828.186C151.92 839.026 149.673 849.764 145.209 859.649L177.096 873.918C183.841 859.602 187.242 843.948 187.045 828.133C187.325 809.958 182.775 792.032 173.857 776.176C165.305 761.042 152.738 748.546 137.533 740.058C121.681 731.253 103.787 726.751 85.6416 727.002C67.4956 726.748 49.6009 731.25 33.75 740.058C18.5222 748.563 5.95082 761.1 -2.57407 776.283C-11.4574 792.108 -16.0056 809.984 -15.7617 828.115C-15.9395 843.922 -12.5196 859.564 -5.75913 873.865L26.0736 859.596C21.5868 849.733 19.3092 839.015 19.3993 828.186Z" fill="#1D1D1B"/>
<path d="M33.6606 916.243C49.5115 925.052 67.4062 929.554 85.5522 929.299C103.698 929.551 121.592 925.049 137.444 916.243C152.646 907.761 165.213 895.271 173.768 880.143C174.931 878.128 176.005 876.059 177.007 873.972L145.12 859.703C144.494 861.077 143.814 862.432 143.098 863.77C137.652 874.039 129.45 882.598 119.407 888.49C109.128 894.481 97.4046 897.565 85.4985 897.408C73.5984 897.562 61.8814 894.479 51.6079 888.49C41.5653 882.598 33.363 874.039 27.9168 863.77C27.201 862.432 26.5211 861.077 25.8948 859.703L-5.93799 873.972C-4.93594 876.023 -3.88022 878.056 -2.75292 880.036C5.79595 895.227 18.4 907.759 33.6606 916.243Z" fill="#E6007E"/>
<path d="M1236.74 828.186C1236.56 815.808 1239.53 803.586 1245.36 792.657C1250.79 782.382 1258.99 773.821 1269.04 767.936C1279.39 762.136 1291.07 759.09 1302.95 759.09C1314.82 759.09 1326.5 762.136 1336.85 767.936C1346.89 773.834 1355.08 782.392 1360.53 792.657C1366.36 803.587 1369.32 815.809 1369.13 828.186C1369.26 839.026 1367.01 849.764 1362.55 859.649L1394.45 873.918C1401.19 859.6 1404.59 843.947 1404.38 828.133C1404.66 809.958 1400.12 792.032 1391.2 776.176C1382.64 761.042 1370.08 748.546 1354.87 740.058C1338.92 731.503 1321.09 727.025 1302.98 727.025C1284.87 727.025 1267.04 731.503 1251.09 740.058C1235.86 748.563 1223.29 761.1 1214.77 776.283C1206.68 791.189 1202.19 807.766 1201.64 824.702C1201.09 841.638 1204.5 858.469 1211.6 873.865L1243.41 859.596C1238.93 849.733 1236.65 839.015 1236.74 828.186Z" fill="#1D1D1B"/>
<path d="M1251 916.243C1266.95 924.798 1284.78 929.276 1302.89 929.276C1321 929.276 1338.83 924.798 1354.78 916.243C1369.99 907.761 1382.55 895.271 1391.11 880.143C1392.27 878.128 1393.34 876.059 1394.36 873.972L1362.46 859.703C1361.83 861.077 1361.15 862.432 1360.44 863.77C1354.99 874.035 1346.8 882.592 1336.76 888.49C1326.41 894.291 1314.73 897.337 1302.86 897.337C1290.98 897.337 1279.3 894.291 1268.95 888.49C1258.9 882.606 1250.71 874.044 1245.27 863.77C1244.54 862.438 1243.86 861.082 1243.23 859.703L1211.42 873.972C1212.4 876.023 1213.46 878.056 1214.59 880.036C1223.14 895.227 1235.74 907.759 1251 916.243Z" fill="#E6007E"/>
<path d="M932.404 221.475C932.222 209.098 935.183 196.876 941.011 185.946C946.457 175.676 954.66 167.118 964.702 161.225C975.053 155.425 986.727 152.378 998.602 152.378C1010.48 152.378 1022.15 155.425 1032.5 161.225C1042.54 167.118 1050.75 175.676 1056.19 185.946C1062.01 196.879 1064.97 209.099 1064.8 221.475C1064.93 232.32 1062.69 243.063 1058.23 252.956L1090.12 267.225C1096.86 252.908 1100.27 237.254 1100.07 221.439C1100.34 203.274 1095.78 185.362 1086.86 169.519C1078.31 154.391 1065.74 141.901 1050.54 133.418C1034.58 124.848 1016.73 120.361 998.602 120.361C980.472 120.361 962.626 124.848 946.666 133.418C931.437 141.93 918.866 154.473 910.341 169.661C901.468 185.481 896.932 203.352 897.19 221.475C897.012 237.282 900.432 252.924 907.192 267.225L939.025 252.956C934.547 243.067 932.287 232.324 932.404 221.475Z" fill="#1D1D1B"/>
<path d="M946.665 309.532C962.626 318.102 980.472 322.589 998.602 322.589C1016.73 322.589 1034.58 318.102 1050.54 309.532C1065.74 301.058 1078.31 288.574 1086.86 273.449C1088.03 271.416 1089.1 269.347 1090.1 267.26L1058.21 252.992C1057.59 254.365 1056.91 255.72 1056.19 257.04C1050.74 267.281 1042.54 275.809 1032.5 281.672C1022.15 287.472 1010.48 290.519 998.602 290.519C986.727 290.519 975.053 287.472 964.702 281.672C954.655 275.784 946.452 267.224 941.011 256.951C940.295 255.631 939.615 254.276 938.989 252.902L907.156 267.171C908.14 269.222 909.214 271.256 910.341 273.253C918.858 288.456 931.43 301.012 946.665 309.532Z" fill="#E6007E"/>
<path d="M1033.84 423.719C1033.66 411.342 1036.62 399.12 1042.45 388.189C1047.9 377.92 1056.1 369.361 1066.14 363.468C1076.49 357.668 1088.17 354.621 1100.04 354.621C1111.92 354.621 1123.59 357.668 1133.94 363.468C1143.98 369.361 1152.19 377.92 1157.63 388.189C1163.45 399.123 1166.41 411.342 1166.24 423.719C1166.36 434.559 1164.12 445.296 1159.65 455.181L1191.54 469.45C1198.28 455.14 1201.69 439.492 1201.49 423.683C1201.77 405.502 1197.22 387.571 1188.3 371.709C1179.74 356.59 1167.17 344.108 1151.98 335.626C1136.03 327.06 1118.2 322.576 1100.09 322.576C1081.97 322.576 1064.14 327.06 1048.19 335.626C1032.9 344.117 1020.27 356.669 1011.71 371.887C1002.82 387.71 998.275 405.587 998.521 423.719C998.347 439.526 1001.77 455.167 1008.52 469.468L1040.36 455.199C1035.91 445.303 1033.69 434.559 1033.84 423.719Z" fill="#1D1D1B"/>
<path d="M1048.1 511.757C1064.05 520.312 1081.88 524.79 1100 524.79C1118.11 524.79 1135.94 520.312 1151.89 511.757C1167.09 503.275 1179.66 490.785 1188.21 475.657C1189.37 473.642 1190.45 471.573 1191.45 469.468L1159.56 455.199C1158.94 456.573 1158.26 457.928 1157.54 459.266C1152.1 469.535 1143.89 478.094 1133.85 483.987C1123.5 489.787 1111.83 492.833 1099.95 492.833C1088.08 492.833 1076.4 489.787 1066.05 483.987C1056.01 478.094 1047.81 469.535 1042.36 459.266C1041.64 457.928 1040.96 456.573 1040.34 455.199L1008.51 469.468C1009.51 471.519 1010.56 473.535 1011.69 475.532C1020.24 490.726 1032.85 503.263 1048.1 511.757Z" fill="#E6007E"/>
<path d="M1338.2 322.587C1338.02 310.2 1340.98 297.968 1346.8 287.022C1352.24 276.752 1360.45 268.197 1370.49 262.319C1380.84 256.507 1392.52 253.454 1404.39 253.454C1416.27 253.454 1427.95 256.507 1438.29 262.319C1448.34 268.197 1456.55 276.752 1461.98 287.022C1467.8 297.957 1470.76 310.176 1470.59 322.552C1470.72 333.398 1468.47 344.141 1464.01 354.032L1495.89 368.301C1502.64 353.986 1506.04 338.331 1505.84 322.516C1506.12 304.341 1501.57 286.415 1492.65 270.56C1484.09 255.436 1471.53 242.947 1456.33 234.459C1440.37 225.889 1422.52 221.402 1404.39 221.402C1386.26 221.402 1368.42 225.889 1352.46 234.459C1337.23 242.977 1324.66 255.519 1316.13 270.702C1307.25 286.52 1302.7 304.39 1302.95 322.516C1302.77 338.323 1306.19 353.965 1312.95 368.266L1344.78 353.997C1340.33 344.127 1338.08 333.409 1338.2 322.587Z" fill="#1D1D1B"/>
<path d="M1352.46 410.644C1368.41 419.225 1386.26 423.718 1404.39 423.718C1422.53 423.718 1440.37 419.225 1456.33 410.644C1471.53 402.17 1484.1 389.686 1492.65 374.561C1493.82 372.528 1494.89 370.477 1495.89 368.372L1464.01 354.104C1463.38 355.477 1462.7 356.832 1461.98 358.17C1456.55 368.441 1448.34 376.996 1438.29 382.873C1427.95 388.685 1416.27 391.738 1404.39 391.738C1392.52 391.738 1380.84 388.685 1370.49 382.873C1360.45 376.996 1352.24 368.441 1346.8 358.17C1346.09 356.832 1345.41 355.477 1344.78 354.104L1312.95 368.372C1313.95 370.441 1315.01 372.457 1316.13 374.454C1324.66 389.624 1337.23 402.149 1352.46 410.644Z" fill="#E6007E"/>
<path d="M120.839 19.2495C120.705 6.89336 123.702 -5.29659 129.553 -16.1907C134.939 -26.4915 143.108 -35.0853 153.137 -41.0007C163.491 -46.8008 175.168 -49.8473 187.045 -49.8473C198.922 -49.8473 210.599 -46.8008 220.953 -41.0007C231.007 -35.0878 239.206 -26.4956 244.627 -16.1907C250.455 -5.26024 253.416 6.96169 253.234 19.3387C253.368 30.1796 251.121 40.9185 246.649 50.8015L278.553 65.0704C285.292 50.7592 288.688 35.111 288.484 19.303C288.767 1.1218 284.217 -16.8102 275.296 -32.6712C266.735 -47.7899 254.169 -60.272 238.972 -68.7536C223.126 -77.5762 205.229 -82.0853 187.081 -81.8274C168.933 -82.0819 151.037 -77.5731 135.189 -68.7536C119.936 -60.2763 107.333 -47.7572 98.7757 -32.5821C89.8901 -16.7589 85.3417 1.1178 85.5881 19.2495C85.3947 35.0546 88.8026 50.6974 95.5549 64.999L127.37 50.7302C122.922 40.8349 120.693 30.0916 120.839 19.2495Z" fill="#1D1D1B"/>
<path d="M135.1 107.307C150.952 116.112 168.846 120.614 186.991 120.363C205.137 120.618 223.032 116.115 238.883 107.307C254.114 98.8318 266.712 86.3425 275.296 71.2065C276.459 69.1732 277.533 67.1221 278.553 65.0174L246.649 50.7486C246.022 52.1219 245.342 53.4775 244.627 54.8152C239.182 65.08 230.987 73.6377 220.953 79.536C210.599 85.336 198.922 88.3826 187.045 88.3826C175.168 88.3826 163.49 85.336 153.136 79.536C143.12 73.6284 134.953 65.0556 129.553 54.7795C128.825 53.4478 128.145 52.0922 127.513 50.7129L95.5547 64.9996C96.5388 67.0507 97.5946 69.0662 98.7219 71.0638C107.267 86.2543 119.856 98.7966 135.1 107.307Z" fill="#E6007E"/>
<path d="M425.173 322.588C424.979 310.202 427.927 297.969 433.744 287.023C439.178 276.754 447.376 268.2 457.418 262.32C467.697 256.33 479.42 253.246 491.326 253.402V221.475C473.18 221.221 455.286 225.723 439.435 234.531C424.211 243.049 411.641 255.591 403.111 270.774C394.227 286.592 389.679 304.462 389.923 322.588C389.743 338.397 393.169 354.041 399.943 368.337L431.758 354.068C427.293 344.177 425.045 333.434 425.173 322.588Z" fill="#1D1D1B"/>
<path d="M439.435 410.662C455.286 419.47 473.18 423.972 491.326 423.718V391.702C479.42 391.858 467.697 388.774 457.418 382.784C447.383 376.919 439.186 368.384 433.744 358.135C433.017 356.803 432.337 355.448 431.705 354.068L399.89 368.337C400.874 370.406 401.93 372.422 403.057 374.419C411.602 389.61 424.191 402.152 439.435 410.662Z" fill="#E6007E"/>
<path d="M830.983 727.073C830.804 714.691 833.764 702.464 839.59 691.526C845.011 681.272 853.182 672.72 863.192 666.823C873.498 660.818 885.254 657.734 897.19 657.905V625.907C879.041 625.648 861.144 630.157 845.298 638.981C830.066 647.481 817.494 660.019 808.974 675.206C800.081 691.026 795.532 708.905 795.787 727.038C795.604 742.846 799.024 758.488 805.789 772.787L837.604 758.518C833.13 748.641 830.871 737.91 830.983 727.073Z" fill="#1D1D1B"/>
<path d="M845.298 815.13C861.148 823.941 879.043 828.443 897.19 828.186V796.17C885.254 796.332 873.501 793.249 863.192 787.252C853.158 781.354 844.963 772.796 839.518 762.531C838.785 761.194 838.123 759.838 837.478 758.465L805.664 772.734C806.648 774.785 807.703 776.8 808.849 778.798C817.394 794.035 830.011 806.612 845.298 815.13Z" fill="#E6007E"/>
<path d="M1439.65 19.2506C1439.5 6.89901 1442.48 -5.29067 1448.31 -16.1897C1453.73 -26.4836 1461.9 -35.0738 1471.93 -40.9997C1482.21 -46.9905 1493.94 -50.0738 1505.84 -49.9177V-82.0226C1487.69 -82.2821 1469.8 -77.773 1453.95 -68.9488C1438.72 -60.4442 1426.14 -47.9074 1417.61 -32.7237C1408.73 -16.8992 1404.19 0.977638 1404.44 19.1079C1404.26 34.9158 1407.68 50.5588 1414.44 64.8574L1446.26 50.5885C1441.8 40.7427 1439.55 30.05 1439.65 19.2506Z" fill="#1D1D1B"/>
<path d="M1453.91 107.307C1469.76 116.118 1487.66 120.62 1505.81 120.363V88.2578C1493.9 88.4048 1482.18 85.3222 1471.9 79.3398C1461.92 73.4723 1453.76 64.9736 1448.31 54.7795C1447.57 53.4478 1446.89 52.0922 1446.27 50.7129L1414.46 64.9817C1415.44 67.0329 1416.5 69.0484 1417.63 71.046C1426.14 86.2312 1438.7 98.7786 1453.91 107.307Z" fill="#E6007E"/>
<path d="M1135.28 625.907C1135.11 613.529 1138.07 601.308 1143.91 590.378C1149.34 580.103 1157.54 571.542 1167.58 565.657C1177.86 559.675 1189.58 556.592 1201.49 556.739V524.83C1183.34 524.579 1165.45 529.081 1149.6 537.886C1134.34 546.405 1121.75 558.968 1113.22 574.183C1104.35 589.973 1099.8 607.811 1100.03 625.907C1099.85 641.717 1103.28 657.361 1110.05 671.657L1141.87 657.388C1137.4 647.497 1135.15 636.753 1135.28 625.907Z" fill="#1D1D1B"/>
<path d="M1149.49 714C1165.34 722.811 1183.23 727.319 1201.38 727.074V694.969C1189.48 695.125 1177.75 692.042 1167.47 686.051C1157.42 680.173 1149.22 671.61 1143.8 661.33C1143.07 660.01 1142.39 658.655 1141.76 657.281L1109.94 671.55C1110.93 673.601 1111.98 675.635 1113.11 677.632C1121.63 692.875 1134.22 705.464 1149.49 714Z" fill="#E6007E"/>
<path d="M729.508 19.2489C729.347 6.90041 732.313 -5.28909 738.133 -16.1914C743.563 -26.4662 751.762 -35.0273 761.806 -40.9122C772.111 -46.9187 783.868 -50.0025 795.804 -49.8302V-81.9351C777.656 -82.1896 759.76 -77.6808 743.913 -68.8613C728.651 -60.3523 716.053 -47.7949 707.517 -32.5827C698.631 -16.7596 694.083 1.11713 694.329 19.2489C694.153 35.0581 697.579 50.701 704.35 64.9984L736.165 50.7295C731.674 40.8439 729.402 30.1003 729.508 19.2489Z" fill="#1D1D1B"/>
<path d="M743.77 107.307C759.622 116.113 777.516 120.615 795.661 120.363V88.2582C783.726 88.4215 771.972 85.3382 761.663 79.3401C751.619 73.4552 743.421 64.8941 737.99 54.6194C737.25 53.2876 736.571 51.9321 735.95 50.5527L704.135 64.8216C705.119 66.8727 706.175 68.8882 707.302 70.8858C715.846 86.1539 728.469 98.7615 743.77 107.307Z" fill="#E6007E"/>
<path d="M760.464 322.588C760.639 310.2 757.679 297.968 751.858 287.023C746.419 276.752 738.215 268.197 728.166 262.32C717.861 256.314 706.105 253.23 694.168 253.402V221.475C712.314 221.221 730.209 225.723 746.06 234.531C761.284 243.049 773.854 255.591 782.384 270.774C791.267 286.592 795.816 304.462 795.572 322.588C795.75 338.395 792.33 354.037 785.569 368.337L753.736 354.068C758.251 344.188 760.547 333.444 760.464 322.588Z" fill="#1D1D1B"/>
<path d="M746.203 410.663C730.352 419.471 712.457 423.973 694.312 423.719V391.703C706.248 391.875 718.004 388.791 728.309 382.785C738.358 376.908 746.562 368.353 752.001 358.082C752.716 356.745 753.396 355.389 754.023 354.016L785.855 368.284C784.853 370.353 783.798 372.369 782.67 374.367C774.109 389.589 761.487 402.151 746.203 410.663Z" fill="#E6007E"/>
<path d="M1166.24 120.361C1166.42 107.984 1163.46 95.7624 1157.63 84.8319C1152.19 74.5671 1143.99 66.0094 1133.96 60.1111C1123.65 54.1063 1111.9 51.0226 1099.96 51.1931V19.2487C1118.11 18.9913 1136 23.4938 1151.85 32.3047C1167.08 40.8044 1179.66 53.3428 1188.18 68.5298C1197.07 84.3504 1201.62 102.229 1201.36 120.361C1201.55 136.17 1198.13 151.814 1191.36 166.111L1159.55 151.842C1164.05 141.959 1166.33 131.215 1166.24 120.361Z" fill="#1D1D1B"/>
<path d="M1151.98 208.419C1136.13 217.23 1118.23 221.732 1100.09 221.475V189.459C1112.02 189.63 1123.78 186.546 1134.08 180.541C1144.12 174.643 1152.31 166.085 1157.76 155.821C1158.49 154.483 1159.15 153.127 1159.8 151.754L1191.61 166.023C1190.63 168.074 1189.57 170.107 1188.43 172.087C1179.89 187.332 1167.27 199.912 1151.98 208.419Z" fill="#E6007E"/>
<path d="M120.838 524.83C120.689 512.443 123.687 500.221 129.553 489.3C134.983 479.025 143.181 470.464 153.226 464.579C163.505 458.589 175.228 455.505 187.134 455.661V423.717C168.989 423.465 151.095 427.968 135.243 436.773C120.01 445.28 107.438 457.824 98.9186 473.016C90.0328 488.833 85.4843 506.704 85.731 524.83C85.4837 540.636 88.8428 556.292 95.5546 570.615L127.369 556.346C122.919 546.439 120.69 535.684 120.838 524.83Z" fill="#1D1D1B"/>
<path d="M135.1 612.887C150.952 621.692 168.846 626.194 186.991 625.942V593.927C175.085 594.083 163.362 591 153.083 585.009C143.101 579.123 134.955 570.589 129.553 560.359C128.819 559.022 128.139 557.684 127.513 556.311L95.5547 570.615C96.5388 572.666 97.5946 574.7 98.7219 576.697C107.267 591.874 119.857 604.399 135.1 612.887Z" fill="#E6007E"/>
<path d="M222.295 727.075C222.113 714.698 225.074 702.476 230.902 691.545C236.342 681.277 244.538 672.718 254.575 666.824C264.855 660.835 276.578 657.752 288.484 657.906V625.908C270.336 625.657 252.441 630.166 236.592 638.982C221.36 647.482 208.788 660.02 200.268 675.207C191.374 691.027 186.826 708.906 187.08 727.039C186.898 742.847 190.318 758.49 197.083 772.788L228.898 758.52C224.43 748.641 222.177 737.91 222.295 727.075Z" fill="#1D1D1B"/>
<path d="M236.557 815.13C252.407 823.941 270.302 828.443 288.448 828.186V796.17C276.543 796.316 264.823 793.233 254.54 787.252C244.506 781.354 236.311 772.796 230.866 762.531C230.133 761.194 229.471 759.838 228.827 758.465L197.012 772.734C197.996 774.785 199.052 776.8 200.197 778.798C208.713 794.027 221.299 806.604 236.557 815.13Z" fill="#E6007E"/>
<path d="M19.3993 322.588C19.2152 310.199 22.1758 297.965 28.0061 287.023C33.4443 276.752 41.6488 268.197 51.6973 262.32C61.9711 256.332 73.6878 253.249 85.5879 253.402V221.475C67.4419 221.22 49.5472 225.723 33.6963 234.531C18.4724 243.049 5.90273 255.591 -2.62776 270.774C-11.5112 286.592 -16.0595 304.462 -15.8154 322.588C-15.9932 338.395 -12.5733 354.037 -5.81283 368.337L26.02 354.068C21.5419 344.18 19.2825 333.436 19.3993 322.588Z" fill="#1D1D1B"/>
<path d="M33.6607 410.663C49.5115 419.472 67.4062 423.974 85.5522 423.719V391.703C73.6522 391.856 61.9354 388.773 51.6617 382.785C41.6131 376.908 33.4086 368.353 27.9705 358.082C27.2547 356.745 26.5748 355.389 25.9485 354.016L-5.88428 368.284C-4.88223 370.353 -3.82651 372.369 -2.69921 374.367C5.83316 389.574 18.4164 402.136 33.6607 410.663Z" fill="#E6007E"/>
<path d="M323.734 19.2491C323.568 6.9022 326.528 -5.28722 332.341 -16.1911C337.777 -26.4683 345.982 -35.0296 356.032 -40.9119C366.306 -46.9004 378.023 -49.9836 389.923 -49.8299V-81.9348C371.774 -82.1927 353.877 -77.6836 338.031 -68.861C322.804 -60.3561 310.232 -47.819 301.707 -32.636C292.822 -16.8128 288.273 1.06387 288.52 19.1956L323.734 19.2491Z" fill="#1D1D1B"/>
<path d="M526.631 221.475C526.449 209.098 529.409 196.876 535.237 185.945C540.706 175.669 548.933 167.11 559 161.224C569.283 155.244 581.004 152.161 592.909 152.306V120.362C574.762 120.105 556.867 124.607 541.017 133.418C525.785 141.925 513.212 154.469 504.693 169.661C495.799 185.474 491.25 203.348 491.505 221.475H526.631Z" fill="#1D1D1B"/>
<path d="M659.008 322.588C659.192 310.199 656.231 297.965 650.401 287.023C644.96 276.76 636.764 268.207 626.727 262.32C616.421 256.316 604.666 253.232 592.729 253.402V221.475C610.876 221.218 628.771 225.72 644.621 234.531C659.85 243.043 672.421 255.586 680.945 270.774C689.836 286.589 694.385 304.461 694.133 322.588H659.008Z" fill="#1D1D1B"/>
<path d="M760.464 625.907C760.635 613.532 757.675 601.312 751.858 590.378C746.411 580.109 738.209 571.55 728.166 565.657C717.858 559.659 706.104 556.576 694.168 556.739V524.83C712.314 524.576 730.209 529.079 746.06 537.887C761.344 546.398 773.966 558.961 782.527 574.183C791.398 589.973 795.946 607.812 795.715 625.907H760.464Z" fill="#1D1D1B"/>
<path d="M557.569 727.073C557.748 714.691 554.788 702.464 548.962 691.526C543.522 681.263 535.325 672.71 525.288 666.823C514.983 660.818 503.227 657.734 491.291 657.905V625.907C509.439 625.648 527.337 630.157 543.182 638.981C558.41 647.486 570.981 660.023 579.506 675.206C588.4 691.026 592.949 708.905 592.694 727.038L557.569 727.073Z" fill="#1D1D1B"/>
<path d="M50.3375 524.83C50.5194 512.453 47.5587 500.231 41.7306 489.301C36.2862 479.036 28.0911 470.478 18.0574 464.58C7.77839 458.589 -3.94499 455.506 -15.8511 455.662V423.717C2.29523 423.46 20.1905 427.963 36.0405 436.773C51.2784 445.279 63.8568 457.823 72.3824 473.016C81.2628 488.834 85.8051 506.705 85.5522 524.83H50.3375Z" fill="#1D1D1B"/>
<path d="M50.3375 120.361C50.5194 107.984 47.5587 95.7624 41.7306 84.8319C36.2862 74.5671 28.0911 66.0094 18.0574 60.1111C7.77838 54.1203 -3.94499 51.037 -15.8511 51.1931V19.2487C2.29523 18.9913 20.1905 23.4938 36.0405 32.3047C51.2863 40.804 63.8765 53.3413 72.4182 68.5298C81.2961 84.3553 85.8382 102.231 85.5879 120.361H50.3375Z" fill="#1D1D1B"/>
<path d="M151.795 727.074C151.976 714.697 149.016 702.475 143.188 691.545C137.747 681.272 129.543 672.712 119.496 666.824C109.223 660.836 97.5061 657.752 85.606 657.906V625.908C103.753 625.66 121.648 630.168 137.498 638.982C152.725 647.487 165.297 660.024 173.822 675.207C182.707 691.03 187.256 708.907 187.009 727.039L151.795 727.074Z" fill="#1D1D1B"/>
<path d="M354.673 828.186C354.854 815.809 351.894 803.587 346.066 792.656C340.621 782.391 332.426 773.834 322.392 767.935C312.087 761.929 300.331 758.845 288.395 759.017V727.073C306.541 726.816 324.436 731.318 340.286 740.129C355.519 748.634 368.096 761.17 376.628 776.354C385.506 792.18 390.048 810.056 389.798 828.186H354.673Z" fill="#1D1D1B"/>
<path d="M456.129 828.187C456.303 815.811 453.343 803.591 447.523 792.658C442.076 782.388 433.874 773.83 423.831 767.937C413.526 761.931 401.77 758.847 389.833 759.019V727.075C407.979 726.821 425.874 731.323 441.725 740.131C456.953 748.636 469.524 761.173 478.049 776.356C486.932 792.18 491.481 810.056 491.237 828.187H456.129Z" fill="#1D1D1B"/>
<path d="M861.903 322.588C862.087 310.199 859.127 297.965 853.297 287.023C847.858 276.752 839.654 268.197 829.605 262.32C819.333 256.33 807.615 253.246 795.715 253.402V221.475C813.861 221.218 831.756 225.72 847.606 234.531C862.83 243.049 875.4 255.591 883.93 270.774C892.839 286.585 897.412 304.456 897.19 322.588H861.903Z" fill="#1D1D1B"/>
<path d="M963.396 828.187C963.572 815.808 960.605 803.586 954.771 792.657C949.341 782.383 941.142 773.822 931.098 767.937C920.819 761.946 909.096 758.863 897.189 759.019V727.074C915.329 726.801 933.222 731.278 949.081 740.059C964.309 748.564 976.88 761.101 985.405 776.284C994.285 792.109 998.827 809.985 998.575 828.116L963.396 828.187Z" fill="#1D1D1B"/>
<path d="M1166.24 828.186C1166.42 815.809 1163.46 803.587 1157.63 792.656C1152.19 782.391 1143.99 773.834 1133.96 767.935C1123.65 761.931 1111.9 758.847 1099.96 759.017V727.073C1118.11 726.816 1136 731.318 1151.85 740.129C1167.08 748.629 1179.66 761.167 1188.18 776.354C1197.07 792.174 1201.62 810.053 1201.36 828.186H1166.24Z" fill="#1D1D1B"/>
<path d="M963.396 929.299C963.572 916.92 960.605 904.698 954.771 893.769C949.341 883.495 941.142 874.933 931.098 869.049C920.815 863.066 909.094 859.983 897.189 860.131V828.026C915.335 827.774 933.229 832.276 949.081 841.082C964.309 849.594 976.881 862.137 985.405 877.325C994.285 893.143 998.828 911.014 998.575 929.138L963.396 929.299Z" fill="#1D1D1B"/>
<path d="M1166.24 322.588C1166.42 310.199 1163.46 297.965 1157.63 287.023C1152.19 276.752 1143.99 268.197 1133.94 262.32C1123.67 256.332 1111.95 253.249 1100.05 253.402V221.475C1118.2 221.22 1136.09 225.723 1151.94 234.531C1167.17 243.049 1179.73 255.591 1188.27 270.774C1197.15 286.592 1201.7 304.462 1201.45 322.588H1166.24Z" fill="#1D1D1B"/>
<path d="M1470.59 221.474C1470.77 209.097 1467.81 196.875 1461.98 185.945C1456.54 175.676 1448.34 167.117 1438.29 161.224C1428.02 155.243 1416.3 152.161 1404.4 152.306V120.362C1422.55 120.107 1440.44 124.609 1456.29 133.418C1471.52 141.93 1484.09 154.473 1492.62 169.661C1501.5 185.477 1506.05 203.348 1505.81 221.474H1470.59Z" fill="#1D1D1B"/>
<path d="M1267.7 322.588C1267.88 310.199 1264.92 297.965 1259.09 287.023C1253.64 276.763 1245.43 268.22 1235.38 262.355C1225.07 256.35 1213.32 253.266 1201.38 253.437V221.475C1219.53 221.221 1237.42 225.723 1253.27 234.531C1268.5 243.049 1281.07 255.591 1289.6 270.774C1298.48 286.591 1303.03 304.462 1302.78 322.588H1267.7Z" fill="#1D1D1B"/>
<path d="M1267.7 423.718C1267.88 411.341 1264.92 399.119 1259.09 388.189C1253.64 377.917 1245.43 369.358 1235.38 363.468C1225.07 357.462 1213.32 354.378 1201.38 354.55V322.445C1219.53 322.197 1237.42 326.706 1253.27 335.519C1268.5 344.024 1281.07 356.561 1289.6 371.744C1298.48 387.567 1303.03 405.444 1302.78 423.576L1267.7 423.718Z" fill="#1D1D1B"/>
<path d="M963.396 625.907C963.57 613.529 960.603 601.308 954.771 590.378C949.341 580.103 941.142 571.542 931.098 565.657C920.815 559.675 909.094 556.592 897.189 556.739V524.83C915.335 524.579 933.229 529.081 949.081 537.886C964.323 546.41 976.901 558.973 985.423 574.183C994.288 589.974 998.83 607.813 998.593 625.907H963.396Z" fill="#1D1D1B"/>
<path d="M253.234 423.719C253.416 411.342 250.455 399.12 244.627 388.189C239.182 377.924 230.987 369.367 220.953 363.468C210.648 357.464 198.892 354.38 186.956 354.55V322.445C205.103 322.194 222.999 326.703 238.847 335.519C254.075 344.024 266.646 356.561 275.171 371.744C284.065 387.564 288.614 405.443 288.359 423.576L253.234 423.719Z" fill="#1D1D1B"/>
<path d="M120.856 322.588C120.7 310.192 123.691 297.957 129.553 287.023C134.986 276.755 143.184 268.2 153.226 262.32C163.505 256.33 175.229 253.247 187.135 253.402V221.475C168.988 221.218 151.093 225.72 135.243 234.531C119.963 243.024 107.341 255.568 98.7757 270.774C89.8978 286.593 85.3556 304.464 85.606 322.588H120.856Z" fill="#1D1D1B"/>
<path d="M323.734 120.363C323.552 107.986 326.513 95.7641 332.341 84.8337C337.787 74.5643 345.99 66.0056 356.032 60.1129C366.306 54.1244 378.023 51.0411 389.923 51.1949V19.2505C371.777 18.9956 353.882 23.4979 338.031 32.3065C322.803 40.8114 310.232 53.3485 301.707 68.5315C292.824 84.3556 288.276 102.232 288.52 120.363H323.734Z" fill="#1D1D1B"/>
<path d="M323.734 524.83C323.553 512.453 326.513 500.231 332.341 489.3C337.788 479.031 345.99 470.472 356.032 464.58C366.306 458.591 378.023 455.508 389.923 455.662V423.717C371.777 423.462 353.882 427.965 338.031 436.773C322.799 445.28 310.227 457.824 301.707 473.016C292.822 488.833 288.273 506.704 288.52 524.83H323.734Z" fill="#1D1D1B"/>
<path d="M830.983 120.361C830.801 107.984 833.762 95.7624 839.59 84.8319C845.015 74.5765 853.184 66.0197 863.192 60.1111C873.498 54.1063 885.254 51.0226 897.19 51.1931V19.2487C879.043 18.9913 861.148 23.4938 845.298 32.3047C830.066 40.8044 817.494 53.3428 808.974 68.5298C800.082 84.3504 795.533 102.229 795.786 120.361H830.983Z" fill="#1D1D1B"/>
<path d="M1033.88 19.249C1033.71 6.90208 1036.67 -5.28734 1042.49 -16.1913C1047.93 -26.4645 1056.13 -35.0245 1066.18 -40.912C1076.46 -46.9028 1088.18 -49.9861 1100.09 -49.8301V-81.935C1081.94 -82.1911 1064.04 -77.6822 1048.19 -68.8611C1032.97 -60.3562 1020.39 -47.8191 1011.87 -32.6361C1002.98 -16.8129 998.436 1.06374 998.682 19.1955L1033.88 19.249Z" fill="#1D1D1B"/>
<path d="M1135.28 19.2489C1135.12 6.90041 1138.09 -5.28909 1143.91 -16.1914C1149.34 -26.4662 1157.54 -35.0273 1167.58 -40.9122C1177.86 -46.903 1189.58 -49.9863 1201.49 -49.8302V-81.9351C1183.34 -82.1896 1165.44 -77.6808 1149.6 -68.8613C1134.37 -60.3563 1121.8 -47.8192 1113.27 -32.6362C1104.39 -16.8131 1099.84 1.06361 1100.09 19.1954L1135.28 19.2489Z" fill="#1D1D1B"/>
<path d="M19.3995 625.908C19.2198 613.531 22.1804 601.309 28.0063 590.378C33.4526 580.109 41.6548 571.55 51.6975 565.657C61.974 559.676 73.6889 556.594 85.588 556.739V524.831C67.442 524.576 49.5474 529.078 33.6965 537.887C18.4522 546.414 5.86898 558.975 -2.66339 574.183C-11.5339 589.973 -16.0819 607.812 -15.851 625.908H19.3995Z" fill="#1D1D1B"/>
<path d="M425.174 221.474C424.981 209.1 427.929 196.879 433.745 185.945C439.175 175.67 447.374 167.109 457.418 161.224C467.7 155.242 479.421 152.159 491.326 152.306V120.362C473.18 120.108 455.286 124.61 439.435 133.418C424.206 141.93 411.635 154.473 403.111 169.661C394.225 185.477 389.676 203.348 389.923 221.474H425.174Z" fill="#1D1D1B"/>
<path d="M19.3991 221.474C19.2172 209.097 22.1779 196.875 28.006 185.945C33.4523 175.676 41.6545 167.117 51.6972 161.224C61.9737 155.243 73.6886 152.161 85.5877 152.306V120.362C67.4417 120.107 49.547 124.609 33.6962 133.418C18.4545 141.925 5.87055 154.468 -2.6637 169.661C-11.5495 185.477 -16.098 203.348 -15.8513 221.474H19.3991Z" fill="#1D1D1B"/>
<path d="M19.3991 19.2485C19.2323 6.90154 22.1925 -5.28786 28.006 -16.1918C33.4334 -26.4979 41.6381 -35.09 51.6971 -41.0018C61.9706 -46.9903 73.6875 -50.0735 85.5877 -49.9198V-82.0247C67.4391 -82.2825 49.5422 -77.7735 33.6961 -68.9509C18.436 -60.4123 5.84986 -47.8234 -2.66372 -32.5831C-11.5494 -16.76 -16.0978 1.11673 -15.8513 19.2485H19.3991Z" fill="#1D1D1B"/>
<path d="M323.734 423.718C323.553 411.341 326.513 399.119 332.341 388.189C337.788 377.92 345.99 369.361 356.032 363.468C366.306 357.48 378.023 354.396 389.923 354.55V322.445C371.775 322.197 353.881 326.705 338.031 335.519C322.804 344.024 310.232 356.561 301.707 371.744C292.822 387.567 288.273 405.444 288.52 423.576L323.734 423.718Z" fill="#1D1D1B"/>
<path d="M628.069 524.83C627.887 512.453 630.848 500.231 636.676 489.301C642.121 479.036 650.316 470.478 660.35 464.58C670.629 458.591 682.352 455.508 694.258 455.662V423.717C676.112 423.46 658.216 427.963 642.366 436.773C627.134 445.28 614.562 457.825 606.042 473.016C597.157 488.833 592.608 506.704 592.855 524.83H628.069Z" fill="#1D1D1B"/>
<path d="M628.069 727.073C627.89 714.691 630.85 702.464 636.676 691.526C642.116 681.263 650.313 672.71 660.35 666.823C670.629 660.834 682.352 657.751 694.258 657.905V625.907C676.109 625.648 658.212 630.157 642.366 638.981C627.139 647.486 614.567 660.023 606.042 675.206C597.157 691.029 592.608 708.906 592.855 727.038L628.069 727.073Z" fill="#1D1D1B"/>
<path d="M1064.84 929.299C1065.01 916.92 1062.04 904.698 1056.21 893.77C1050.78 883.495 1042.58 874.934 1032.54 869.049C1022.26 863.058 1010.53 859.975 998.629 860.131V828.026C1016.77 827.772 1034.67 832.274 1050.52 841.082C1065.78 849.63 1078.36 862.232 1086.86 877.485C1095.75 893.302 1100.3 911.173 1100.05 929.299H1064.84Z" fill="#1D1D1B"/>
<path d="M1135.32 929.299C1135.14 916.92 1138.11 904.698 1143.94 893.769C1149.37 883.495 1157.57 874.933 1167.62 869.049C1177.92 863.042 1189.68 859.958 1201.61 860.131V828.026C1183.47 827.774 1165.57 832.276 1149.72 841.082C1134.49 849.588 1121.92 862.133 1113.4 877.325C1104.52 893.143 1099.98 911.014 1100.23 929.138L1135.32 929.299Z" fill="#1D1D1B"/>
<path d="M425.174 929.299C424.981 916.925 427.929 904.703 433.745 893.77C439.175 883.495 447.374 874.934 457.418 869.049C467.7 863.066 479.421 859.984 491.326 860.131V828.026C473.18 827.772 455.286 832.274 439.435 841.082C424.206 849.594 411.635 862.137 403.111 877.325C394.225 893.141 389.676 911.012 389.923 929.138L425.174 929.299Z" fill="#1D1D1B"/>
<path d="M222.295 929.299C222.113 916.922 225.074 904.7 230.902 893.77C236.346 883.505 244.542 874.947 254.575 869.049C264.858 863.068 276.579 859.986 288.484 860.131V828.026C270.337 827.769 252.442 832.271 236.592 841.082C221.36 849.589 208.787 862.133 200.268 877.325C191.374 893.138 186.825 911.012 187.08 929.139L222.295 929.299Z" fill="#1D1D1B"/>
<path d="M526.63 828.186C526.448 815.809 529.409 803.587 535.237 792.656C540.706 782.38 548.933 773.821 559 767.935C569.28 761.946 581.003 758.863 592.908 759.017V727.073C574.762 726.816 556.867 731.318 541.017 740.129C525.785 748.629 513.212 761.167 504.693 776.354C495.801 792.175 491.252 810.053 491.505 828.186H526.63Z" fill="#1D1D1B"/>
<path d="M1033.88 625.907C1033.7 613.531 1036.66 601.309 1042.49 590.378C1047.93 580.109 1056.13 571.55 1066.18 565.657C1076.46 559.675 1088.18 556.592 1100.09 556.739V524.83C1081.94 524.576 1064.05 529.079 1048.19 537.887C1032.94 546.405 1020.35 558.968 1011.82 574.183C1002.95 589.973 998.398 607.812 998.628 625.907H1033.88Z" fill="#1D1D1B"/>
<path d="M729.508 727.073C729.334 714.689 732.301 702.462 738.133 691.526C743.566 681.257 751.764 672.703 761.806 666.823C772.111 660.816 783.868 657.732 795.804 657.905V625.907C777.656 625.651 759.759 630.16 743.913 638.981C728.654 647.485 716.056 660.036 707.517 675.241C698.631 691.065 694.083 708.941 694.329 727.073H729.508Z" fill="#1D1D1B"/>
<path d="M932.404 727.073C932.225 714.691 935.185 702.464 941.011 691.526C946.449 681.255 954.654 672.7 964.702 666.823C974.976 660.835 986.693 657.751 998.593 657.905V625.907C980.444 625.648 962.547 630.157 946.701 638.981C931.474 647.486 918.902 660.023 910.377 675.206C901.486 691.04 896.937 708.929 897.19 727.073H932.404Z" fill="#1D1D1B"/>
<path d="M830.983 524.83H795.733C795.535 540.649 798.949 556.306 805.717 570.615L837.532 556.346C833.071 546.442 830.836 535.686 830.983 524.83Z" fill="#1D1D1B"/>
<path d="M845.298 612.888C861.151 621.686 879.046 626.176 897.19 625.908V593.928C885.253 594.099 873.497 591.015 863.192 585.01C853.158 579.112 844.963 570.554 839.518 560.289C838.785 558.952 838.123 557.614 837.478 556.223L805.664 570.492C806.648 572.543 807.703 574.576 808.849 576.574C817.389 591.81 830.008 604.382 845.298 612.888Z" fill="#E6007E"/>
<path d="M323.734 828.186H288.484C288.306 843.993 291.726 859.635 298.486 873.935L330.319 859.666C325.853 849.775 323.605 839.032 323.734 828.186Z" fill="#1D1D1B"/>
<path d="M337.996 916.243C353.847 925.051 371.741 929.553 389.887 929.299V897.194C377.987 897.347 366.27 894.264 355.997 888.276C345.954 882.383 337.752 873.824 332.305 863.555C331.59 862.217 330.91 860.862 330.283 859.488L298.451 873.757C299.435 875.808 300.508 877.842 301.636 879.821C310.138 895.084 322.726 907.693 337.996 916.243Z" fill="#E6007E"/>
<path d="M151.794 322.588H187.045C187.223 338.395 183.803 354.037 177.042 368.337L145.209 354.069C149.675 344.177 151.922 333.434 151.794 322.588Z" fill="#1D1D1B"/>
<path d="M137.533 410.663C121.682 419.471 103.788 423.973 85.6416 423.719V391.703C97.5476 391.858 109.271 388.775 119.55 382.785C129.599 376.908 137.803 368.353 143.241 358.082C143.957 356.745 144.637 355.389 145.263 354.016L177.096 368.284C176.094 370.353 175.038 372.369 173.911 374.367C165.374 389.577 152.784 402.138 137.533 410.663Z" fill="#E6007E"/>
<path d="M557.568 221.475H592.819C593.005 237.283 589.585 252.927 582.816 267.224L550.983 252.955C555.456 243.066 557.703 232.321 557.568 221.475Z" fill="#1D1D1B"/>
<path d="M543.307 309.532C527.457 318.343 509.562 322.845 491.416 322.588V290.59C503.316 290.746 515.034 287.663 525.306 281.672C535.353 275.784 543.556 267.224 548.997 256.951C549.713 255.631 550.393 254.276 551.019 252.902L582.852 267.171C581.868 269.222 580.794 271.256 579.667 273.253C571.14 288.461 558.555 301.018 543.307 309.532Z" fill="#E6007E"/>
<path d="M151.794 120.361H187.045C187.223 136.169 183.803 151.811 177.042 166.111L145.209 151.842C149.676 141.951 151.923 131.207 151.794 120.361Z" fill="#1D1D1B"/>
<path d="M137.533 208.419C121.682 217.227 103.788 221.729 85.6416 221.475V189.459C97.5477 189.615 109.271 186.532 119.55 180.541C129.593 174.649 137.795 166.09 143.241 155.821C143.957 154.483 144.637 153.127 145.263 151.754L177.096 166.023C176.094 168.074 175.038 170.107 173.911 172.087C165.39 187.319 152.797 199.896 137.533 208.419Z" fill="#E6007E"/>
<path d="M659.007 120.361H694.258C694.444 136.17 691.024 151.813 684.255 166.111L652.44 151.842C656.901 141.95 659.142 131.206 659.007 120.361Z" fill="#1D1D1B"/>
<path d="M644.746 208.419C628.896 217.23 611.001 221.732 592.854 221.475V189.459C604.791 189.632 616.547 186.548 626.852 180.541C636.886 174.643 645.081 166.085 650.526 155.821C651.265 154.489 651.945 153.133 652.566 151.754L684.38 166.023C683.396 168.074 682.341 170.107 681.213 172.087C672.667 187.33 660.042 199.907 644.746 208.419Z" fill="#E6007E"/>
<path d="M852.652 6.1756C836.805 14.9951 818.909 19.5039 800.761 19.2494V-12.8555C812.609 -12.6486 824.291 -15.6506 834.562 -21.5416C844.636 -27.4381 852.854 -36.0256 858.289 -46.3338C859.028 -47.6655 859.708 -49.0211 860.329 -50.4004L892.144 -36.1315C891.159 -34.0626 890.104 -32.0471 888.976 -30.0494C880.452 -14.8665 867.88 -2.32933 852.652 6.1756Z" fill="#E6007E"/>
<path d="M949.081 6.1756C933.234 14.9951 915.338 19.5039 897.189 19.2494V-12.8555C909.096 -12.6994 920.819 -15.7827 931.098 -21.7735C941.107 -27.62 949.29 -36.1228 954.735 -46.3338C955.475 -47.6655 956.155 -49.0211 956.775 -50.4004L988.59 -36.1315C987.606 -34.0626 986.55 -32.0471 985.423 -30.0494C976.893 -14.8641 964.315 -2.32671 949.081 6.1756Z" fill="#E6007E"/>
<path d="M1253.49 6.1756C1237.64 14.9998 1219.74 19.509 1201.6 19.2494V-12.8555C1213.5 -12.7012 1225.22 -15.7844 1235.5 -21.7735C1245.51 -27.6266 1253.69 -36.1278 1259.14 -46.3338C1259.86 -47.6655 1260.54 -49.0211 1261.18 -50.4004L1293 -36.1315C1292.01 -34.0626 1290.96 -32.0471 1289.81 -30.0494C1281.29 -14.8665 1268.72 -2.32933 1253.49 6.1756Z" fill="#E6007E"/>
<path d="M1349.9 6.1756C1334.05 14.9998 1316.16 19.509 1298.01 19.2494V-12.8555C1309.94 -12.685 1321.7 -15.7687 1332 -21.7735C1341.99 -27.6344 1350.15 -36.1348 1355.59 -46.3338C1356.3 -47.6655 1356.98 -49.0211 1357.63 -50.4004L1389.44 -36.1315C1388.46 -34.0626 1387.4 -32.0471 1386.26 -30.0494C1377.72 -14.8617 1365.14 -2.32409 1349.9 6.1756Z" fill="#E6007E"/>
<path d="M659.007 19.25H694.258C694.441 35.0579 691.021 50.7009 684.255 64.9995L652.44 50.7306C656.901 40.8383 659.142 30.0948 659.007 19.25Z" fill="#1D1D1B"/>
<path d="M644.746 107.307C628.896 116.118 611.001 120.62 592.854 120.363V88.2582C604.79 88.4215 616.544 85.3382 626.852 79.3401C636.886 73.4419 645.081 64.8842 650.526 54.6194C651.265 53.2876 651.945 51.9321 652.566 50.5527L684.38 64.8216C683.396 66.8727 682.341 68.8882 681.213 70.8858C672.67 86.1539 660.047 98.7615 644.746 107.307Z" fill="#E6007E"/>
<path d="M441.868 6.1756C426.021 14.9967 408.125 19.5056 389.977 19.2494V-12.8555C401.913 -12.6831 413.669 -15.767 423.974 -21.7735C433.951 -27.6329 442.102 -36.1345 447.522 -46.3338C448.238 -47.6715 448.918 -49.027 449.544 -50.4004L481.377 -36.1315C480.375 -34.0626 479.319 -32.0471 478.192 -30.0494C469.667 -14.8665 457.096 -2.32933 441.868 6.1756Z" fill="#E6007E"/>
<path d="M253.233 423.719H288.484C288.667 439.527 285.247 455.17 278.481 469.468L246.667 455.199C251.127 445.307 253.368 434.564 253.233 423.719Z" fill="#1D1D1B"/>
<path d="M238.972 511.757C223.122 520.568 205.227 525.07 187.081 524.813V492.815C199.016 492.976 210.769 489.893 221.078 483.897C231.112 477.999 239.307 469.441 244.752 459.176C245.468 457.844 246.147 456.489 246.792 455.109L278.607 469.378C277.622 471.429 276.567 473.445 275.421 475.443C266.879 490.677 254.26 503.249 238.972 511.757Z" fill="#E6007E"/>
<path d="M963.396 423.719H998.647C998.829 439.527 995.409 455.17 988.644 469.468L956.829 455.199C961.29 445.307 963.531 434.564 963.396 423.719Z" fill="#1D1D1B"/>
<path d="M949.081 511.757C933.231 520.568 915.336 525.07 897.189 524.813V492.815C909.094 492.962 920.815 489.879 931.098 483.897C941.132 477.999 949.327 469.441 954.771 459.176C955.505 457.838 956.167 456.483 956.811 455.109L988.626 469.378C987.642 471.429 986.586 473.445 985.459 475.443C976.929 490.663 964.338 503.232 949.081 511.757Z" fill="#E6007E"/>
<path d="M1064.83 625.908H1100.09C1100.27 641.718 1096.84 657.362 1090.06 671.658L1058.25 657.389C1062.72 647.498 1064.96 636.754 1064.83 625.908Z" fill="#1D1D1B"/>
<path d="M1050.57 714C1034.72 722.811 1016.83 727.319 998.682 727.074V694.969C1010.59 695.125 1022.31 692.042 1032.59 686.051C1042.64 680.173 1050.84 671.61 1056.26 661.33C1057 660.01 1057.68 658.655 1058.3 657.281L1090.12 671.55C1089.13 673.601 1088.08 675.635 1086.95 677.632C1078.43 692.875 1065.84 705.464 1050.57 714Z" fill="#E6007E"/>
<path d="M1439.64 625.907C1439.48 613.537 1442.47 601.328 1448.31 590.414C1453.76 580.144 1461.96 571.586 1472 565.693C1482.29 559.71 1494.01 556.628 1505.91 556.775V524.83C1487.77 524.576 1469.87 529.079 1454.02 537.887C1438.74 546.395 1426.12 558.959 1417.57 574.183C1408.7 589.973 1404.15 607.812 1404.38 625.907H1439.64Z" fill="#1D1D1B"/>
<path d="M1470.59 625.908H1505.84C1506.02 641.718 1502.6 657.362 1495.82 671.658L1464.01 657.389C1468.47 647.498 1470.72 636.754 1470.59 625.908Z" fill="#1D1D1B"/>
<path d="M1456.33 714C1440.48 722.813 1422.59 727.322 1404.44 727.074V694.969C1416.34 695.125 1428.07 692.042 1438.35 686.051C1448.4 680.173 1456.6 671.61 1462.02 661.33C1462.75 660.01 1463.43 658.655 1464.06 657.281L1495.88 671.55C1494.89 673.601 1493.84 675.635 1492.71 677.632C1484.19 692.875 1471.6 705.464 1456.33 714Z" fill="#E6007E"/>
<path d="M1470.59 423.719H1505.84C1506.02 439.528 1502.59 455.171 1495.82 469.468L1464.01 455.199C1468.47 445.308 1470.72 434.565 1470.59 423.719Z" fill="#1D1D1B"/>
<path d="M1456.33 511.757C1440.48 520.564 1422.58 525.067 1404.44 524.813V492.815C1416.34 492.962 1428.06 489.879 1438.35 483.897C1448.39 478.012 1456.59 469.451 1462.02 459.176C1462.75 457.844 1463.43 456.489 1464.06 455.109L1495.88 469.378C1494.89 471.429 1493.84 473.445 1492.71 475.443C1484.18 490.664 1471.59 503.233 1456.33 511.757Z" fill="#E6007E"/>
<path d="M1439.64 929.299C1439.48 916.916 1442.46 904.693 1448.31 893.77C1453.76 883.5 1461.96 874.941 1472 869.049C1482.29 863.066 1494.01 859.984 1505.91 860.131V828.026C1487.77 827.772 1469.87 832.274 1454.02 841.082C1438.79 849.594 1426.22 862.137 1417.7 877.325C1408.81 893.141 1404.26 911.012 1404.51 929.138L1439.64 929.299Z" fill="#1D1D1B"/>
<path d="M1470.59 727.074H1505.84C1506.02 742.883 1502.59 758.526 1495.82 772.824L1464.01 758.555C1468.47 748.664 1470.72 737.92 1470.59 727.074Z" fill="#1D1D1B"/>
<path d="M1456.33 815.13C1440.48 823.938 1422.58 828.44 1404.44 828.186V796.17C1416.34 796.317 1428.06 793.235 1438.35 787.252C1448.39 781.367 1456.59 772.806 1462.02 762.531C1462.75 761.2 1463.43 759.844 1464.06 758.465L1495.88 772.734C1494.89 774.785 1493.84 776.8 1492.71 778.798C1484.18 794.021 1471.59 806.596 1456.33 815.13Z" fill="#E6007E"/>
<path d="M1064.83 727.074H1100.09C1100.26 742.883 1096.84 758.526 1090.06 772.824L1058.25 758.555C1062.72 748.664 1064.96 737.92 1064.83 727.074Z" fill="#1D1D1B"/>
<path d="M1050.57 815.13C1034.72 823.935 1016.83 828.437 998.682 828.186V796.17C1010.59 796.317 1022.31 793.235 1032.59 787.252C1042.63 781.367 1050.83 772.806 1056.26 762.531C1056.99 761.2 1057.67 759.844 1058.3 758.465L1090.12 772.734C1089.13 774.785 1088.08 776.8 1086.95 778.798C1078.42 794.021 1065.83 806.596 1050.57 815.13Z" fill="#E6007E"/>
<path d="M659.007 828.186H694.258C694.444 843.994 691.024 859.638 684.255 873.935L652.44 859.666C656.901 849.774 659.142 839.03 659.007 828.186Z" fill="#1D1D1B"/>
<path d="M644.746 916.243C628.896 925.054 611.001 929.556 592.854 929.299V897.194C604.791 897.366 616.547 894.282 626.852 888.276C636.89 882.383 645.087 873.824 650.526 863.555C651.265 862.223 651.945 860.868 652.566 859.488L684.38 873.757C683.396 875.808 682.341 877.842 681.213 879.821C672.684 895.1 660.057 907.711 644.746 916.243Z" fill="#E6007E"/>
<path d="M760.464 828.186H795.715C795.893 843.993 792.473 859.635 785.712 873.935L753.879 859.666C758.346 849.775 760.593 839.032 760.464 828.186Z" fill="#1D1D1B"/>
<path d="M746.203 916.243C730.352 925.05 712.457 929.553 694.312 929.299V897.194C706.248 897.366 718.004 894.282 728.309 888.276C738.352 882.383 746.554 873.824 752.001 863.555C752.716 862.217 753.396 860.862 754.023 859.488L785.855 873.757C784.853 875.808 783.798 877.842 782.67 879.821C774.138 895.098 761.512 907.708 746.203 916.243Z" fill="#E6007E"/>
<path d="M861.903 828.186H897.189C897.376 843.994 893.956 859.638 887.187 873.935L855.372 859.666C859.82 849.771 862.049 839.028 861.903 828.186Z" fill="#1D1D1B"/>
<path d="M847.642 916.243C831.792 925.054 813.897 929.556 795.75 929.299V897.194C807.656 897.348 819.379 894.265 829.659 888.276C839.693 882.377 847.888 873.82 853.332 863.555C854.048 862.223 854.728 860.868 855.372 859.488L887.187 873.757C886.203 875.808 885.147 877.842 884.002 879.821C875.499 895.084 862.912 907.693 847.642 916.243Z" fill="#E6007E"/>
<path d="M557.568 828.186H592.819C593.005 843.994 589.585 859.638 582.816 873.935L551.001 859.666C555.462 849.774 557.703 839.03 557.568 828.186Z" fill="#1D1D1B"/>
<path d="M543.307 916.243C527.457 925.054 509.562 929.556 491.416 929.299V897.194C503.352 897.364 515.108 894.28 525.413 888.276C535.447 882.377 543.642 873.82 549.087 863.555C549.802 862.223 550.482 860.868 551.127 859.488L582.941 873.757C581.957 875.808 580.902 877.842 579.756 879.821C571.229 895.096 558.61 907.706 543.307 916.243Z" fill="#E6007E"/>
<path d="M1369.13 120.361H1404.38C1404.57 136.17 1401.15 151.813 1394.38 166.111L1362.57 151.842C1367.03 141.95 1369.27 131.206 1369.13 120.361Z" fill="#1D1D1B"/>
<path d="M1354.87 208.419C1339.02 217.23 1321.13 221.732 1302.98 221.475V189.459C1314.92 189.63 1326.67 186.546 1336.98 180.541C1347.01 174.643 1355.21 166.085 1360.65 155.821C1361.37 154.489 1362.05 153.133 1362.69 151.754L1394.51 166.023C1393.52 168.074 1392.47 170.107 1391.32 172.087C1382.79 187.332 1370.17 199.912 1354.87 208.419Z" fill="#E6007E"/>
<path d="M1267.7 120.361H1302.95C1303.12 136.169 1299.7 151.811 1292.94 166.111L1261.11 151.842C1265.58 141.951 1267.82 131.207 1267.7 120.361Z" fill="#1D1D1B"/>
<path d="M1253.43 208.419C1237.58 217.227 1219.69 221.729 1201.54 221.475V189.459C1213.48 189.632 1225.24 186.548 1235.54 180.541C1245.58 174.649 1253.79 166.09 1259.23 155.821C1259.95 154.483 1260.63 153.127 1261.25 151.754L1293.09 166.023C1292.08 168.074 1291.03 170.107 1289.9 172.087C1281.36 187.331 1268.73 199.909 1253.43 208.419Z" fill="#E6007E"/>
<path d="M659.007 524.83H694.258C694.45 540.65 691.029 556.307 684.255 570.615L652.44 556.346C656.908 546.444 659.149 535.687 659.007 524.83Z" fill="#1D1D1B"/>
<path d="M644.746 612.888C628.896 621.699 611.001 626.201 592.854 625.944V593.928C604.791 594.099 616.547 591.015 626.852 585.01C636.886 579.112 645.081 570.554 650.526 560.289C651.259 558.952 651.921 557.614 652.566 556.223L684.255 570.616C683.271 572.668 682.215 574.701 681.07 576.698C672.545 591.872 659.973 604.398 644.746 612.888Z" fill="#E6007E"/>
<path d="M50.3375 625.908H85.5879C85.7745 641.717 82.3542 657.36 75.5854 671.658L43.7705 657.389C48.23 647.496 50.4711 636.753 50.3375 625.908Z" fill="#1D1D1B"/>
<path d="M36.0761 714C20.2307 722.825 2.33338 727.334 -15.8154 727.074V694.969C-3.87908 695.142 7.87739 692.058 18.1825 686.051C28.1413 680.21 36.2897 671.742 41.7305 661.58C42.4582 660.249 43.1381 658.893 43.7704 657.514L75.5853 671.783C74.6011 673.852 73.5454 675.867 72.4181 677.865C63.873 693.015 51.2969 705.52 36.0761 714Z" fill="#E6007E"/>
<path d="M845.191 410.662C861.139 419.22 878.969 423.7 897.082 423.7C915.195 423.7 933.025 419.22 948.974 410.662C964.177 402.174 976.748 389.686 985.316 374.561C986.461 372.528 987.552 370.477 988.554 368.372L956.668 354.104C956.024 355.477 955.362 356.832 954.628 358.17C949.188 368.433 940.991 376.986 930.955 382.873C920.605 388.685 908.926 391.738 897.046 391.738C885.167 391.738 873.488 388.685 863.138 382.873C853.101 376.986 844.905 368.433 839.465 358.17C838.749 356.838 838.069 355.483 837.425 354.104L805.61 368.372C806.594 370.424 807.65 372.439 808.795 374.437C817.342 389.627 829.938 402.165 845.191 410.662Z" fill="#E6007E"/>
<path d="M963.396 322.695C963.528 333.534 961.287 344.271 956.829 354.158L988.716 368.427C995.431 354.122 998.808 338.487 998.593 322.695H963.396Z" fill="#1D1D1B"/>
<path d="M830.983 322.695H795.733C795.55 338.503 798.97 354.146 805.735 368.445L837.55 354.176C833.089 344.284 830.848 333.54 830.983 322.695Z" fill="#1D1D1B"/>
<path d="M1250.98 511.757C1266.93 520.315 1284.76 524.795 1302.87 524.795C1320.99 524.795 1338.82 520.315 1354.77 511.757C1369.97 503.275 1382.53 490.785 1391.09 475.657C1392.25 473.624 1393.33 471.573 1394.35 469.468L1362.46 455.199C1361.82 456.579 1361.14 457.934 1360.42 459.266C1354.98 469.531 1346.78 478.088 1336.75 483.987C1326.39 489.787 1314.72 492.833 1302.84 492.833C1290.96 492.833 1279.28 489.787 1268.93 483.987C1258.9 478.088 1250.7 469.531 1245.26 459.266C1244.52 457.928 1243.86 456.573 1243.22 455.199L1211.4 469.468C1212.39 471.519 1213.44 473.535 1214.59 475.532C1223.13 490.727 1235.73 503.266 1250.98 511.757Z" fill="#E6007E"/>
<path d="M1369.13 423.717C1369.26 434.557 1367.01 445.294 1362.55 455.18L1394.45 469.449C1401.19 455.138 1404.59 439.49 1404.38 423.682L1369.13 423.717Z" fill="#1D1D1B"/>
<path d="M1236.74 423.719H1201.49C1201.31 439.528 1204.74 455.171 1211.51 469.468L1243.32 455.199C1238.86 445.308 1236.61 434.565 1236.74 423.719Z" fill="#1D1D1B"/>
<path d="M337.96 713.999C353.917 722.581 371.764 727.073 389.896 727.073C408.028 727.073 425.875 722.581 441.832 713.999C457.035 705.525 469.602 693.041 478.156 677.917C479.32 675.884 480.393 673.815 481.395 671.728L449.509 657.459C448.882 658.832 448.202 660.188 447.487 661.508C442.051 671.785 433.847 680.346 423.796 686.229C413.445 692.029 401.77 695.075 389.896 695.075C378.022 695.075 366.347 692.029 355.997 686.229C345.946 680.346 337.741 671.785 332.305 661.508C331.59 660.188 330.91 658.832 330.283 657.459L298.451 671.728C299.453 673.779 300.508 675.812 301.636 677.81C310.166 692.98 322.737 705.504 337.96 713.999Z" fill="#E6007E"/>
<path d="M456.129 625.908C456.257 636.754 454.01 647.498 449.544 657.389L481.431 671.658C488.172 657.353 491.574 641.711 491.38 625.908H456.129Z" fill="#1D1D1B"/>
<path d="M323.734 625.908H288.484C288.306 641.716 291.726 657.358 298.486 671.658L330.319 657.389C325.853 647.498 323.606 636.754 323.734 625.908Z" fill="#1D1D1B"/>
</g>
</g>
</g>
<defs>
<clipPath id="clip0_224_4500">
<rect width="1521.69" height="1011.18" fill="white" transform="translate(-15.8511 -81.8809)"/>
</clipPath>
</defs>
</svg>
