<svg width="580" height="435" viewBox="0 0 580 435" fill="none" xmlns="http://www.w3.org/2000/svg">
<path d="M98.3367 434.998C189.964 434.998 272.592 413.989 346.223 371.969C418.877 330.899 478.852 270.389 519.523 197.124C524.929 187.496 529.987 177.726 534.698 167.815C559.605 115.046 574.947 58.2127 580 0H410.877C406.513 34.1901 397.084 67.5269 382.904 98.8978C379.883 105.615 376.639 112.063 373.195 118.512C345.793 169.561 308.119 209.319 260.172 237.785C212.226 266.25 158.281 280.483 98.3367 280.483C65.023 280.69 31.8694 275.822 0 266.041V426.288C32.4515 432.172 65.3644 435.087 98.3367 434.998Z" fill="#E6007E"/>
</svg>
