<svg width="326" height="82" viewBox="0 0 326 82" fill="none" xmlns="http://www.w3.org/2000/svg">
<g clip-path="url(#clip0_383_39)">
<path d="M20.3009 9.9906H0.880859V0.830078H50.6093V9.9906H31.1594V59.0839H20.3009V9.9906Z" fill="white"/>
<path d="M120.027 0.830078L94.3719 59.0839H83.6625L58.0376 0.830078H69.97L89.4796 45.773L109.138 0.830078H120.027Z" fill="white"/>
<path d="M235.532 38.5394V59.0839H224.644V38.6876L201.614 0.830078H213.248L230.401 29.201L247.733 0.830078H258.442L235.532 38.5394Z" fill="white"/>
<path d="M308.439 45.5951H279.145L273.358 59.0839H262.141L288.512 0.830078H299.251L325.86 59.0839H314.465L308.439 45.5951ZM304.979 37.0571L293.911 11.5915L282.844 37.0571H304.979Z" fill="white"/>
<path d="M140.67 29.9718C140.62 26.281 141.545 22.6416 143.355 19.418C145.078 16.3515 147.63 13.8254 150.723 12.1251C153.952 10.3461 157.592 9.43653 161.283 9.48666C164.965 9.43758 168.595 10.3472 171.814 12.1251C174.906 13.8254 177.458 16.3515 179.182 19.418C180.991 22.6416 181.917 26.281 181.867 29.9718C181.904 33.1901 181.2 36.3742 179.808 39.2806L189.742 43.5199C191.793 39.2992 192.815 34.658 192.725 29.9718C192.807 24.5547 191.382 19.2203 188.608 14.5561C185.89 10.0403 181.98 6.34966 177.302 3.88363C172.338 1.25886 166.787 -0.0770051 161.164 3.83512e-05C155.531 -0.0807287 149.969 1.25521 144.995 3.88363C140.302 6.35459 136.388 10.0691 133.689 14.6154C130.934 19.2642 129.52 24.5772 129.603 29.9718C129.505 34.6587 130.527 39.3018 132.586 43.5199L142.49 39.2806C141.18 36.355 140.558 33.1718 140.67 29.9718Z" fill="white"/>
<path d="M145.114 56.0306C150.088 58.659 155.65 59.9949 161.283 59.9142C166.906 59.9912 172.457 58.6554 177.421 56.0306C182.066 53.5515 185.944 49.862 188.638 45.3581C188.996 44.7356 189.354 44.1427 189.652 43.5201L179.689 39.2808C179.503 39.6975 179.294 40.1034 179.062 40.4962C177.339 43.5627 174.786 46.0888 171.694 47.7891C168.476 49.567 164.845 50.4766 161.163 50.4275C157.472 50.4777 153.832 49.5681 150.603 47.7891C147.511 46.0888 144.958 43.5627 143.235 40.4962C143.026 40.0812 142.787 39.6958 142.609 39.2808L132.705 43.5201C133.003 44.113 133.331 44.7059 133.689 45.2988C136.421 49.8613 140.377 53.5774 145.114 56.0306Z" fill="#E6007E"/>
<path d="M3.68506 72.7804H8.01057C8.92625 72.774 9.83231 72.9663 10.6655 73.3437C11.3911 73.7015 12.0086 74.2435 12.4554 74.9149C12.8847 75.642 13.1016 76.4735 13.0819 77.3162C13.1058 78.1501 12.8883 78.9732 12.4554 79.6879C12.0104 80.3683 11.3932 80.9204 10.6655 81.2887C9.83 81.656 8.92404 81.8381 8.01057 81.8224H3.68506V72.7804ZM7.89124 79.8065C8.5832 79.8314 9.25759 79.5867 9.77061 79.1246C10.0148 78.8929 10.2054 78.6111 10.329 78.2988C10.4526 77.9865 10.5064 77.6512 10.4865 77.3162C10.473 76.9881 10.3919 76.6662 10.2483 76.3704C10.1046 76.0747 9.90142 75.8114 9.65128 75.5968C9.12758 75.1558 8.45799 74.9234 7.77192 74.9446H6.16105V79.925L7.89124 79.8065Z" fill="white"/>
<path d="M41.1528 79.8656V81.8222H33.8442V72.7803H40.9739V74.7665H36.4992V76.2785H40.5562V78.2054H36.4992V79.8656H41.1528Z" fill="white"/>
<path d="M70.7458 72.7803V81.8222H68.6278L64.6006 77.0196V81.8222H62.0649V72.7803H64.1829L68.2101 77.6125V72.7803H70.7458Z" fill="white"/>
<path d="M93.9838 74.8258H91.1797V72.7803H99.3534V74.8258H96.5493V81.8222H93.9838V74.8258Z" fill="white"/>
<path d="M125.455 80.0731H121.607L120.891 81.8222H118.266L122.263 72.7803H124.799L128.975 81.8222H126.32L125.455 80.0731ZM124.68 78.2054L123.516 75.2409L122.353 78.2054H124.68Z" fill="white"/>
<path d="M149.052 72.7803H151.647V79.8063H155.973V81.8222H149.052V72.7803Z" fill="white"/>
<path d="M177.511 81.733C176.908 81.5908 176.334 81.3504 175.811 81.0216L176.676 79.1242C177.103 79.4174 177.577 79.6378 178.078 79.7764C178.588 79.9396 179.122 80.0197 179.659 80.0136C180.673 80.0136 181.15 79.7764 181.15 79.3021C181.152 79.1723 181.112 79.0454 181.037 78.9391C180.962 78.8328 180.856 78.7524 180.733 78.7092C180.286 78.5469 179.827 78.4181 179.36 78.3238C178.782 78.2109 178.213 78.0523 177.66 77.8495C177.207 77.6746 176.799 77.4011 176.467 77.049C176.129 76.6191 175.959 76.0819 175.99 75.5371C175.986 75.0097 176.142 74.4934 176.437 74.0548C176.769 73.5759 177.236 73.2047 177.779 72.9876C178.495 72.7221 179.253 72.5914 180.017 72.6022C180.609 72.6109 181.199 72.6804 181.777 72.8097C182.311 72.9295 182.824 73.1294 183.298 73.4026L182.523 75.2999C181.753 74.85 180.88 74.6049 179.987 74.5884C179.604 74.5652 179.222 74.6473 178.883 74.8256C178.776 74.8837 178.686 74.9694 178.623 75.0736C178.56 75.1779 178.526 75.2969 178.525 75.4185C178.532 75.5391 178.575 75.6549 178.65 75.7503C178.725 75.8456 178.827 75.9161 178.943 75.9521C179.379 76.1152 179.828 76.244 180.285 76.3375C180.872 76.4548 181.451 76.6133 182.015 76.8119C182.471 76.965 182.874 77.2424 183.179 77.6123C183.531 78.0247 183.712 78.5545 183.686 79.0946C183.689 79.622 183.533 80.1383 183.239 80.5769C182.894 81.0494 182.416 81.4104 181.866 81.6145C181.165 81.8941 180.414 82.0254 179.659 81.9999C178.934 82.0026 178.212 81.9129 177.511 81.733Z" fill="white"/>
<path d="M206.178 74.8258H203.374V72.7803H211.518V74.8258H208.744V81.8222H206.178V74.8258Z" fill="white"/>
<path d="M232.907 80.9029C232.525 80.5116 232.227 80.0468 232.032 79.537C231.837 79.0272 231.749 78.4832 231.773 77.9384V72.9282H234.339V77.8791C234.339 79.3317 234.906 80.0432 236.069 80.0432C237.233 80.0432 237.799 79.3317 237.799 77.8791V72.9282H240.335V77.9384C240.352 78.4824 240.261 79.0245 240.067 79.5334C239.872 80.0422 239.578 80.5077 239.201 80.9029C238.776 81.2883 238.277 81.5842 237.733 81.7727C237.19 81.9612 236.614 82.0384 236.039 81.9998C235.47 82.0361 234.899 81.9576 234.36 81.7691C233.822 81.5807 233.328 81.286 232.907 80.9029Z" fill="white"/>
<path d="M261.575 72.7804H265.871C266.787 72.774 267.693 72.9663 268.526 73.3437C269.263 73.6846 269.884 74.2303 270.316 74.9149C270.745 75.642 270.962 76.4735 270.942 77.3162C270.966 78.1501 270.749 78.9732 270.316 79.6879C269.886 80.3812 269.265 80.937 268.526 81.2887C267.69 81.656 266.784 81.8381 265.871 81.8224H261.575V72.7804ZM265.752 79.8065C266.444 79.8314 267.118 79.5867 267.631 79.1246C267.875 78.8929 268.066 78.6111 268.189 78.2988C268.313 77.9865 268.367 77.6512 268.347 77.3162C268.365 76.977 268.311 76.6377 268.187 76.3208C268.064 76.004 267.874 75.7168 267.631 75.4782C267.107 75.0372 266.438 74.8049 265.752 74.826H264.141V79.8065H265.752Z" fill="white"/>
<path d="M291.794 72.7803H294.359V81.8222H291.794V72.7803Z" fill="white"/>
<path d="M317.688 81.5254C316.95 81.1314 316.332 80.5479 315.898 79.8356C315.452 79.1142 315.224 78.2807 315.242 77.4343C315.228 76.5791 315.456 75.7372 315.898 75.0034C316.324 74.2923 316.945 73.7165 317.688 73.3432C318.487 72.9231 319.379 72.709 320.283 72.7207C321.187 72.709 322.079 72.9231 322.878 73.3432C323.63 73.716 324.26 74.2913 324.698 75.0034C325.126 75.7429 325.353 76.581 325.354 77.4343C325.357 78.2789 325.131 79.1086 324.698 79.8356C324.253 80.549 323.625 81.1321 322.878 81.5254C322.077 81.9365 321.185 82.1404 320.283 82.1184C319.382 82.1404 318.489 81.9365 317.688 81.5254ZM321.536 79.6874C321.918 79.4748 322.23 79.1552 322.431 78.7684C322.651 78.3579 322.763 77.8993 322.759 77.4343C322.761 76.9602 322.648 76.4926 322.431 76.0706C322.22 75.6986 321.91 75.3911 321.536 75.1813C321.161 74.9488 320.724 74.8351 320.283 74.8552C319.843 74.8438 319.408 74.9569 319.03 75.1813C318.664 75.3917 318.364 75.6998 318.165 76.0706C317.935 76.488 317.822 76.9588 317.837 77.4343C317.818 77.9008 317.932 78.3631 318.165 78.7684C318.355 79.1531 318.657 79.473 319.03 79.6874C319.414 79.8984 319.845 80.0105 320.283 80.0135C320.734 79.9832 321.168 79.8292 321.536 79.5688V79.6874Z" fill="white"/>
</g>
<defs>
<clipPath id="clip0_383_39">
<rect width="324.831" height="82" fill="white" transform="translate(0.880859)"/>
</clipPath>
</defs>
</svg>
