<svg width="30" height="30" viewBox="0 0 30 30" fill="none" xmlns="http://www.w3.org/2000/svg">
  <path d="M12.4748 28.9951C12.1619 28.8263 12.0862 28.5496 12.0867 28.2016C12.0941 24.5286 12.0957 20.8567 12.0915 17.1859V16.8094H11.7738C10.7524 16.8094 9.73095 16.8094 8.70954 16.8094C8.20915 16.8094 8.00424 16.6022 8.00265 16.0821C7.99912 14.6517 7.99912 13.221 8.00265 11.7899C8.00265 11.272 8.21445 11.0599 8.70954 11.0593C9.73077 11.0593 10.752 11.0593 11.7732 11.0593H12.091C12.091 10.9377 12.091 10.8401 12.091 10.7426C12.0957 9.62181 12.0677 8.49942 12.1137 7.38031C12.1905 5.51094 12.7825 3.85366 14.1624 2.57453C15.1383 1.6708 16.3053 1.14962 17.5967 1.0696C19.0878 0.975886 20.5869 1.01041 22.0827 1C22.394 1 22.5794 1.19127 22.6323 1.51516C22.6474 1.61376 22.6544 1.71348 22.6535 1.8133C22.6535 3.08037 22.6535 4.34708 22.6535 5.61342C22.6535 6.22285 22.4677 6.41247 21.8873 6.4185C21.0332 6.42782 20.1797 6.42672 19.3266 6.45796C18.347 6.49358 17.8726 6.93311 17.825 7.93767C17.7768 8.96361 17.8144 9.99393 17.8144 11.0577H21.7512C22.2807 11.0577 22.4788 11.25 22.4798 11.7866C22.4819 13.2265 22.4809 14.6664 22.4767 16.1062C22.4767 16.6132 22.2786 16.8072 21.7809 16.8083C20.5655 16.8105 19.3505 16.8105 18.1358 16.8083H17.8085V17.1415C17.8085 20.8138 17.8101 24.4856 17.8133 28.1572C17.8133 28.5112 17.7397 28.7984 17.4427 28.9946L12.4748 28.9951Z" fill="white"/>
</svg>
