<svg width="30" height="30" viewBox="0 0 30 30" fill="none" xmlns="http://www.w3.org/2000/svg">
  <path d="M15.9234 0.0209299C17.147 0.0209299 18.3712 0.0110829 19.5947 0.0248686C20.2924 0.0327462 20.99 0.0724621 21.6874 0.109224C22.8445 0.169947 23.9724 0.380343 25.0391 0.850042C27.1591 1.78287 28.5402 3.37972 29.2251 5.60316C29.5831 6.76772 29.6957 7.96642 29.7074 9.17398C29.736 12.1044 29.765 15.0352 29.7591 17.9657C29.7569 19.1384 29.6911 20.3132 29.6039 21.4833C29.5168 22.6228 29.2057 23.7335 28.6889 24.7505C28.1825 25.7565 27.4582 26.5817 26.5737 27.2638C25.6323 27.9892 24.5562 28.4126 23.4085 28.6634C22.6884 28.8168 21.9559 28.9036 21.2201 28.9227C20.035 28.9601 18.8488 28.9923 17.6634 28.9962C15.4415 29.0031 13.2193 29.0054 10.9974 28.9739C10.0293 28.9651 9.06245 28.9022 8.10127 28.7855C5.92624 28.5091 4.08964 27.5746 2.73855 25.7848C2.14533 24.999 1.75289 24.1128 1.48866 23.1645C1.2447 22.2747 1.1135 21.3573 1.09817 20.4343C1.05478 18.3859 1.02441 16.3373 1.00705 14.2885C0.995987 13.1899 0.996638 12.091 1.01844 10.9927C1.03959 9.93942 1.06595 8.88448 1.1421 7.83414C1.24395 6.43391 1.57554 5.08882 2.30445 3.87371C3.20583 2.36975 4.47558 1.30661 6.11596 0.699712C7.27669 0.270386 8.48363 0.106598 9.71107 0.0760727C11.0127 0.0443437 12.315 0.0206016 13.6179 0.00484655C14.3859 -0.00500038 15.1538 0.00320536 15.9218 0.00320536L15.9234 0.0209299ZM3.61259 14.5248H3.58005C3.60674 16.312 3.63049 18.0996 3.66173 19.8871C3.6767 20.7405 3.74764 21.586 3.96501 22.4145C4.28163 23.6299 4.92464 24.6176 5.95944 25.3213C6.83804 25.9194 7.83704 26.1829 8.8777 26.2604C9.87572 26.3346 10.8777 26.37 11.8786 26.3874C13.1523 26.4097 14.4266 26.4087 15.7005 26.3963C17.5371 26.3783 19.3735 26.3492 21.2097 26.309C22.1062 26.2912 22.9848 26.1537 23.8308 25.835C24.7791 25.4776 25.5353 24.8723 26.1045 24.036C26.6251 23.2692 26.9014 22.3994 26.9958 21.4856C27.0862 20.6073 27.1201 19.7227 27.1546 18.8397C27.1842 18.07 27.1871 17.2987 27.1891 16.528C27.1891 14.8868 27.1891 13.248 27.1741 11.6078C27.1653 10.652 27.1269 9.69653 27.1015 8.74072C27.081 7.96347 26.9912 7.19803 26.7761 6.44704C26.5278 5.57985 26.1002 4.82328 25.4517 4.19406C24.6922 3.45653 23.7661 3.07348 22.7508 2.8644C21.8543 2.67927 20.9432 2.67402 20.0356 2.64251C19.0994 2.60969 18.1619 2.60214 17.2251 2.60739C14.8429 2.62074 12.4605 2.64262 10.0781 2.67304C9.23207 2.68288 8.39121 2.74886 7.57021 2.97173C6.89336 3.15488 6.25881 3.43092 5.69878 3.87207C4.57352 4.75993 4.02066 5.96224 3.80231 7.35132C3.64448 8.358 3.6357 9.37585 3.61845 10.3904C3.5947 11.768 3.61259 13.1466 3.61259 14.5248Z" fill="white"/>
  <path d="M15.4066 7.06075C19.4723 7.06075 22.7661 10.3697 22.7745 14.4949C22.783 18.5787 19.5185 21.9785 15.339 21.9519C13.3884 21.9446 11.5205 21.1565 10.1456 19.761C8.77061 18.3654 8.00104 16.4765 8.00588 14.509C7.99905 10.3132 11.3891 7.03056 15.4066 7.06075ZM20.1901 14.4991C20.1608 11.7915 18.0385 9.67479 15.3992 9.66494C12.7058 9.65641 10.504 11.9084 10.5987 14.6787C10.6843 17.1827 12.7158 19.3396 15.3897 19.3396C18.0307 19.3392 20.1648 17.2192 20.1908 14.4991H20.1901Z" fill="white"/>
  <path d="M24.796 6.76377C24.8123 7.68873 24.044 8.4778 23.1039 8.50077C22.1638 8.52375 21.3695 7.75503 21.3509 6.79725C21.3324 5.85556 22.0831 5.05763 22.9828 5.02185C23.9607 4.9841 24.7931 5.74593 24.796 6.76377Z" fill="white"/>
</svg>
