<svg width="30" height="30" viewBox="0 0 30 30" fill="none" xmlns="http://www.w3.org/2000/svg">
  <path d="M11.1332 25.7441C11.2063 24.5428 11.2748 23.3887 11.3479 22.2282C11.4133 21.1997 11.4964 20.1711 11.5434 19.141C11.558 18.8309 11.6426 18.6103 11.8735 18.3998C15.9016 14.707 19.9256 11.0098 23.9454 7.30805C24.0185 7.25521 24.0844 7.19293 24.1417 7.12275C24.2195 6.98466 24.2904 6.84263 24.3541 6.6972C24.1786 6.6603 23.9893 6.56294 23.8308 6.60063C23.5841 6.668 23.3501 6.7765 23.1381 6.92176C18.1552 10.1299 13.1747 13.3445 8.19638 16.5657C7.91547 16.7479 7.68383 16.7887 7.35444 16.6788C5.25651 15.9784 3.14858 15.3103 1.04373 14.6233C0.811864 14.553 0.590679 14.4502 0.38649 14.3179C-0.0752689 14.0038 -0.139146 13.5327 0.281055 13.1723C0.648501 12.8529 1.06437 12.5965 1.51241 12.4131C7.25875 10.1346 13.0097 7.86786 18.7653 5.61291C21.7067 4.45508 24.6481 3.29725 27.5895 2.13942C28.7785 1.66833 29.7444 2.43856 29.5474 3.73562C29.3665 4.90471 29.101 6.06045 28.8601 7.22011C27.853 12.0729 26.843 16.9256 25.8302 21.7783C25.5493 23.128 25.2776 24.4808 24.9836 25.8273C24.6527 27.3395 23.593 27.7345 22.357 26.808C20.2534 25.2314 18.1537 23.6496 16.0578 22.0626C15.9662 21.9935 15.8724 21.9267 15.6869 21.7917C15.4652 22.0476 15.2528 22.324 15.0089 22.5682C14.1238 23.457 13.228 24.334 12.3368 25.2165C12.019 25.5313 11.6611 25.7606 11.1332 25.7441Z" fill="white"/>
</svg>
